<svg width="20" height="20" viewBox="0 0 20 20" fill="none" xmlns="http://www.w3.org/2000/svg">
<path d="M18.829 8.84563L12.454 2.65813C12.292 2.50063 12.0498 2.45638 11.8435 2.54338C11.6357 2.63188 11.5 2.83588 11.5 3.06163V6.25063C5.69275 6.35113 1 11.1061 1 16.9366C1 17.1931 1.18075 17.4031 1.429 17.4676C1.47325 17.4789 1.5175 17.4841 1.56175 17.4841C1.76725 17.4841 1.9675 17.3664 2.07025 17.1811C3.754 14.1391 6.9595 12.2491 10.4365 12.2491H11.5V15.4366C11.5 15.6624 11.6357 15.8664 11.8435 15.9549C12.049 16.0419 12.2928 15.9976 12.454 15.8401L18.829 9.65263C18.9385 9.54688 19 9.40138 19 9.24913C19 9.09688 18.9385 8.95138 18.829 8.84563Z" fill="black"/>
</svg>
