<svg width="289" height="72" viewBox="0 0 289 72" fill="none" xmlns="http://www.w3.org/2000/svg">
<rect x="0.5" width="72" height="72" rx="6" fill="url(#paint0_radial_3514_1725)"/>
<path d="M26.0536 53H14V19L36.5 42.2195L59 19V53H47.75" stroke="white" stroke-width="6" stroke-linecap="round"/>
<path d="M88.1208 50V22H93.0808L101.881 34.96L110.601 22H115.601V50H110.961V29.32L101.841 42.8L92.7608 29.4V50H88.1208ZM133.582 50L133.382 46.24V39.72C133.382 38.36 133.236 37.2267 132.942 36.32C132.676 35.3867 132.222 34.68 131.582 34.2C130.969 33.6933 130.142 33.44 129.102 33.44C128.142 33.44 127.302 33.64 126.582 34.04C125.862 34.44 125.249 35.0667 124.742 35.92L120.822 34.48C121.249 33.6 121.809 32.7867 122.502 32.04C123.222 31.2667 124.116 30.6533 125.182 30.2C126.276 29.7467 127.582 29.52 129.102 29.52C131.049 29.52 132.676 29.9067 133.982 30.68C135.289 31.4267 136.249 32.5067 136.862 33.92C137.502 35.3333 137.822 37.04 137.822 39.04L137.702 50H133.582ZM127.822 50.48C125.422 50.48 123.556 49.9467 122.222 48.88C120.916 47.8133 120.262 46.3067 120.262 44.36C120.262 42.28 120.956 40.6933 122.342 39.6C123.756 38.5067 125.716 37.96 128.222 37.96H133.582V41.4H129.662C127.876 41.4 126.622 41.6533 125.902 42.16C125.182 42.64 124.822 43.3333 124.822 44.24C124.822 45.0133 125.129 45.6267 125.742 46.08C126.382 46.5067 127.262 46.72 128.382 46.72C129.396 46.72 130.276 46.4933 131.022 46.04C131.769 45.5867 132.342 44.9867 132.742 44.24C133.169 43.4933 133.382 42.6533 133.382 41.72H134.702C134.702 44.44 134.156 46.5867 133.062 48.16C131.969 49.7067 130.222 50.48 127.822 50.48ZM149.639 50.48C148.306 50.48 147.079 50.28 145.959 49.88C144.839 49.48 143.879 48.92 143.079 48.2C142.279 47.4533 141.666 46.5867 141.239 45.6L145.119 43.88C145.519 44.6267 146.106 45.2533 146.879 45.76C147.679 46.2667 148.559 46.52 149.519 46.52C150.559 46.52 151.386 46.3467 151.999 46C152.639 45.6267 152.959 45.12 152.959 44.48C152.959 43.8667 152.719 43.4 152.239 43.08C151.759 42.7333 151.079 42.4533 150.199 42.24L148.319 41.72C146.426 41.24 144.946 40.48 143.879 39.44C142.812 38.3733 142.279 37.16 142.279 35.8C142.279 33.8 142.919 32.2533 144.199 31.16C145.506 30.0667 147.372 29.52 149.799 29.52C151.026 29.52 152.146 29.7067 153.159 30.08C154.199 30.4267 155.092 30.9333 155.839 31.6C156.586 32.24 157.106 33 157.399 33.88L153.679 35.56C153.412 34.8933 152.906 34.3867 152.159 34.04C151.412 33.6667 150.586 33.48 149.679 33.48C148.772 33.48 148.066 33.68 147.559 34.08C147.052 34.4533 146.799 34.9867 146.799 35.68C146.799 36.08 147.026 36.4533 147.479 36.8C147.932 37.12 148.586 37.3867 149.439 37.6L151.799 38.16C153.106 38.48 154.172 38.9867 154.999 39.68C155.826 40.3467 156.439 41.1067 156.839 41.96C157.239 42.7867 157.439 43.6267 157.439 44.48C157.439 45.68 157.092 46.7333 156.399 47.64C155.732 48.5467 154.812 49.2533 153.639 49.76C152.466 50.24 151.132 50.48 149.639 50.48ZM168.233 50.48C166.899 50.48 165.673 50.28 164.553 49.88C163.433 49.48 162.473 48.92 161.673 48.2C160.873 47.4533 160.259 46.5867 159.833 45.6L163.713 43.88C164.113 44.6267 164.699 45.2533 165.473 45.76C166.273 46.2667 167.153 46.52 168.113 46.52C169.153 46.52 169.979 46.3467 170.593 46C171.233 45.6267 171.553 45.12 171.553 44.48C171.553 43.8667 171.313 43.4 170.833 43.08C170.353 42.7333 169.673 42.4533 168.793 42.24L166.913 41.72C165.019 41.24 163.539 40.48 162.473 39.44C161.406 38.3733 160.873 37.16 160.873 35.8C160.873 33.8 161.513 32.2533 162.793 31.16C164.099 30.0667 165.966 29.52 168.393 29.52C169.619 29.52 170.739 29.7067 171.753 30.08C172.793 30.4267 173.686 30.9333 174.433 31.6C175.179 32.24 175.699 33 175.993 33.88L172.273 35.56C172.006 34.8933 171.499 34.3867 170.753 34.04C170.006 33.6667 169.179 33.48 168.273 33.48C167.366 33.48 166.659 33.68 166.153 34.08C165.646 34.4533 165.393 34.9867 165.393 35.68C165.393 36.08 165.619 36.4533 166.073 36.8C166.526 37.12 167.179 37.3867 168.033 37.6L170.393 38.16C171.699 38.48 172.766 38.9867 173.593 39.68C174.419 40.3467 175.033 41.1067 175.433 41.96C175.833 42.7867 176.033 43.6267 176.033 44.48C176.033 45.68 175.686 46.7333 174.993 47.64C174.326 48.5467 173.406 49.2533 172.233 49.76C171.059 50.24 169.726 50.48 168.233 50.48ZM180.425 50V22H185.385L194.185 34.96L202.905 22H207.905V50H203.265V29.32L194.145 42.8L185.065 29.4V50H180.425ZM225.887 50L225.687 46.24V39.72C225.687 38.36 225.54 37.2267 225.247 36.32C224.98 35.3867 224.527 34.68 223.887 34.2C223.274 33.6933 222.447 33.44 221.407 33.44C220.447 33.44 219.607 33.64 218.887 34.04C218.167 34.44 217.554 35.0667 217.047 35.92L213.127 34.48C213.554 33.6 214.114 32.7867 214.807 32.04C215.527 31.2667 216.42 30.6533 217.487 30.2C218.58 29.7467 219.887 29.52 221.407 29.52C223.354 29.52 224.98 29.9067 226.287 30.68C227.594 31.4267 228.554 32.5067 229.167 33.92C229.807 35.3333 230.127 37.04 230.127 39.04L230.007 50H225.887ZM220.127 50.48C217.727 50.48 215.86 49.9467 214.527 48.88C213.22 47.8133 212.567 46.3067 212.567 44.36C212.567 42.28 213.26 40.6933 214.647 39.6C216.06 38.5067 218.02 37.96 220.527 37.96H225.887V41.4H221.967C220.18 41.4 218.927 41.6533 218.207 42.16C217.487 42.64 217.127 43.3333 217.127 44.24C217.127 45.0133 217.434 45.6267 218.047 46.08C218.687 46.5067 219.567 46.72 220.687 46.72C221.7 46.72 222.58 46.4933 223.327 46.04C224.074 45.5867 224.647 44.9867 225.047 44.24C225.474 43.4933 225.687 42.6533 225.687 41.72H227.007C227.007 44.44 226.46 46.5867 225.367 48.16C224.274 49.7067 222.527 50.48 220.127 50.48ZM234.944 50V30H239.384V50H234.944ZM237.184 26.2C236.464 26.2 235.837 25.9467 235.304 25.44C234.797 24.9067 234.544 24.28 234.544 23.56C234.544 22.84 234.797 22.2267 235.304 21.72C235.837 21.2133 236.464 20.96 237.184 20.96C237.904 20.96 238.517 21.2133 239.024 21.72C239.557 22.2267 239.824 22.84 239.824 23.56C239.824 24.28 239.557 24.9067 239.024 25.44C238.517 25.9467 237.904 26.2 237.184 26.2ZM244.664 50V22H249.144V50H244.664ZM263.037 50.48C261.09 50.48 259.357 50.04 257.837 49.16C256.343 48.2533 255.157 47.0133 254.277 45.44C253.423 43.8667 252.997 42.0533 252.997 40C252.997 37.9467 253.437 36.1333 254.317 34.56C255.197 32.9867 256.397 31.76 257.917 30.88C259.463 29.9733 261.223 29.52 263.197 29.52C264.983 29.52 266.597 29.9867 268.037 30.92C269.477 31.8267 270.61 33.1467 271.437 34.88C272.29 36.6133 272.717 38.68 272.717 41.08H256.997L257.597 40.52C257.597 41.7467 257.863 42.8133 258.397 43.72C258.93 44.6 259.637 45.28 260.517 45.76C261.397 46.24 262.37 46.48 263.437 46.48C264.663 46.48 265.677 46.2133 266.477 45.68C267.277 45.12 267.903 44.4 268.357 43.52L272.317 45.2C271.757 46.2667 271.037 47.2 270.157 48C269.303 48.8 268.277 49.4133 267.077 49.84C265.903 50.2667 264.557 50.48 263.037 50.48ZM257.877 38.2L257.237 37.64H268.517L267.917 38.2C267.917 37.1067 267.677 36.2133 267.197 35.52C266.717 34.8 266.103 34.2667 265.357 33.92C264.637 33.5467 263.877 33.36 263.077 33.36C262.277 33.36 261.477 33.5467 260.677 33.92C259.877 34.2667 259.21 34.8 258.677 35.52C258.143 36.2133 257.877 37.1067 257.877 38.2ZM279.108 39.36C279.108 37.2 279.521 35.4267 280.348 34.04C281.175 32.6533 282.241 31.6267 283.548 30.96C284.881 30.2667 286.268 29.92 287.708 29.92V34.2C286.481 34.2 285.321 34.3733 284.228 34.72C283.161 35.04 282.295 35.5733 281.628 36.32C280.961 37.0667 280.628 38.0533 280.628 39.28L279.108 39.36ZM276.148 50V30H280.628V50H276.148Z" fill="url(#paint1_radial_3514_1725)"/>
<defs>
<radialGradient id="paint0_radial_3514_1725" cx="0" cy="0" r="1" gradientUnits="userSpaceOnUse" gradientTransform="translate(38.2419 77) rotate(-90.216) scale(77.0005 56.3955)">
<stop stop-color="#1D2130"/>
<stop offset="1" stop-color="#A200FF"/>
</radialGradient>
<radialGradient id="paint1_radial_3514_1725" cx="0" cy="0" r="1" gradientUnits="userSpaceOnUse" gradientTransform="translate(191.435 58.7778) rotate(-91.1016) scale(42.7857 159.759)">
<stop stop-color="#1D2130"/>
<stop offset="1" stop-color="#A200FF"/>
</radialGradient>
</defs>
</svg>
