<svg width="28" height="28" viewBox="0 0 28 28" fill="none" xmlns="http://www.w3.org/2000/svg">
<rect x="0.466667" y="0.466667" width="27.0667" height="27.0667" rx="4.2" fill="#F9EEFF"/>
<rect x="0.466667" y="0.466667" width="27.0667" height="27.0667" rx="4.2" stroke="#9E01F9" stroke-width="0.933333"/>
<path fill-rule="evenodd" clip-rule="evenodd" d="M5.93734 14.009C5.93725 13.744 6.04242 13.4899 6.22973 13.3026C6.41704 13.1153 6.67116 13.0101 6.93619 13.0102L13.0044 13.0133L13.0013 6.94509C12.9989 6.81239 13.023 6.68057 13.0721 6.55733C13.1213 6.43409 13.1944 6.32189 13.2874 6.22728C13.3804 6.13267 13.4913 6.05754 13.6137 6.00628C13.736 5.95502 13.8674 5.92866 14.0001 5.92872C14.1329 5.92879 14.2643 5.95529 14.3867 6.00667C14.5091 6.05805 14.6201 6.13329 14.7132 6.228C14.8062 6.3227 14.8795 6.43497 14.9288 6.55826C14.978 6.68156 15.0022 6.8134 15 6.94609L15.003 13.0143L21.0712 13.0173C21.3333 13.022 21.5831 13.1294 21.7669 13.3164C21.9507 13.5034 22.0537 13.7551 22.0538 14.0172C22.054 14.2792 21.9512 14.5308 21.7676 14.7176C21.584 14.9044 21.3343 15.0116 21.0722 15.016L15.0041 15.013L15.0071 21.0811C15.0027 21.3432 14.8955 21.5929 14.7087 21.7765C14.5219 21.9601 14.2703 22.0629 14.0083 22.0627C13.7462 22.0626 13.4945 21.9596 13.3075 21.7758C13.1205 21.592 13.0131 21.3422 13.0084 21.0801L13.0054 15.0119L6.93719 15.0089C6.67216 15.0087 6.41794 14.9033 6.23044 14.7158C6.04294 14.5283 5.93752 14.2741 5.93734 14.009Z" fill="#9E01F9"/>
</svg>
