<svg width="20" height="20" viewBox="0 0 20 20" fill="none" xmlns="http://www.w3.org/2000/svg">
<path d="M14.6875 10.6875C13.8964 10.6875 13.123 10.9221 12.4652 11.3616C11.8074 11.8011 11.2947 12.4259 10.992 13.1568C10.6892 13.8877 10.61 14.6919 10.7644 15.4679C10.9187 16.2438 11.2997 16.9565 11.8591 17.5159C12.4185 18.0753 13.1312 18.4563 13.9071 18.6106C14.6831 18.765 15.4873 18.6858 16.2182 18.383C16.9491 18.0803 17.5739 17.5676 18.0134 16.9098C18.4529 16.252 18.6875 15.4786 18.6875 14.6875C18.6864 13.627 18.2647 12.6102 17.5148 11.8602C16.7648 11.1103 15.748 10.6886 14.6875 10.6875ZM16.6208 15.6522C16.5817 15.7305 16.5276 15.8005 16.4614 15.8579C16.3953 15.9153 16.3185 15.9592 16.2354 15.9869C16.1523 16.0146 16.0646 16.0257 15.9772 16.0195C15.8898 16.0134 15.8045 15.99 15.7262 15.9508L14.3928 15.2842C14.2814 15.2293 14.1875 15.1443 14.1218 15.0389C14.056 14.9334 14.0211 14.8117 14.0208 14.6875V12.6875C14.0208 12.5107 14.0911 12.3411 14.2161 12.2161C14.3411 12.0911 14.5107 12.0208 14.6875 12.0208C14.8643 12.0208 15.0339 12.0911 15.1589 12.2161C15.2839 12.3411 15.3542 12.5107 15.3542 12.6875V14.2755L16.3188 14.7575C16.3975 14.7963 16.4677 14.8503 16.5255 14.9163C16.5833 14.9823 16.6275 15.059 16.6555 15.1422C16.6836 15.2253 16.695 15.3131 16.689 15.4006C16.6831 15.4881 16.6599 15.5736 16.6208 15.6522Z" fill="black"/>
<path d="M17.3542 4.02083C17.3542 3.4904 17.1435 2.98169 16.7684 2.60662C16.3933 2.23155 15.8846 2.02083 15.3542 2.02083H13.3542V1.35417C13.3542 1.17736 13.2839 1.00779 13.1589 0.882762C13.0339 0.757738 12.8643 0.6875 12.6875 0.6875C12.5107 0.6875 12.3411 0.757738 12.2161 0.882762C12.0911 1.00779 12.0208 1.17736 12.0208 1.35417V2.02083H6.02083V1.35417C6.02083 1.17736 5.95059 1.00779 5.82557 0.882762C5.70055 0.757738 5.53098 0.6875 5.35417 0.6875C5.17736 0.6875 5.00779 0.757738 4.88276 0.882762C4.75774 1.00779 4.6875 1.17736 4.6875 1.35417V2.02083H2.6875C2.15707 2.02083 1.64836 2.23155 1.27329 2.60662C0.898214 2.98169 0.6875 3.4904 0.6875 4.02083V6.02083H17.3542V4.02083Z" fill="black"/>
<path d="M14.6875 9.35413C15.6246 9.3528 16.5451 9.60134 17.3542 10.0741V7.35413H0.6875V15.3541C0.689083 15.8841 0.900305 16.3919 1.27503 16.7666C1.64977 17.1413 2.15755 17.3525 2.6875 17.3541H10.0742C9.60138 16.545 9.35284 15.6245 9.35417 14.6875C9.35611 13.2736 9.91863 11.9181 10.9184 10.9184C11.9182 9.91859 13.2736 9.35607 14.6875 9.35413ZM4.6875 14.6875H3.35417C3.17736 14.6875 3.00779 14.6172 2.88276 14.4922C2.75774 14.3672 2.6875 14.1976 2.6875 14.0208C2.6875 13.844 2.75774 13.6744 2.88276 13.5494C3.00779 13.4244 3.17736 13.3541 3.35417 13.3541H4.6875C4.86431 13.3541 5.03388 13.4244 5.1589 13.5494C5.28393 13.6744 5.35417 13.844 5.35417 14.0208C5.35417 14.1976 5.28393 14.3672 5.1589 14.4922C5.03388 14.6172 4.86431 14.6875 4.6875 14.6875ZM4.6875 11.3541H3.35417C3.17736 11.3541 3.00779 11.2839 2.88276 11.1589C2.75774 11.0338 2.6875 10.8643 2.6875 10.6875C2.6875 10.5106 2.75774 10.3411 2.88276 10.2161C3.00779 10.091 3.17736 10.0208 3.35417 10.0208H4.6875C4.86431 10.0208 5.03388 10.091 5.1589 10.2161C5.28393 10.3411 5.35417 10.5106 5.35417 10.6875C5.35417 10.8643 5.28393 11.0338 5.1589 11.1589C5.03388 11.2839 4.86431 11.3541 4.6875 11.3541ZM8.6875 11.3541H7.35417C7.17736 11.3541 7.00779 11.2839 6.88276 11.1589C6.75774 11.0338 6.6875 10.8643 6.6875 10.6875C6.6875 10.5106 6.75774 10.3411 6.88276 10.2161C7.00779 10.091 7.17736 10.0208 7.35417 10.0208H8.6875C8.86431 10.0208 9.03388 10.091 9.1589 10.2161C9.28393 10.3411 9.35417 10.5106 9.35417 10.6875C9.35417 10.8643 9.28393 11.0338 9.1589 11.1589C9.03388 11.2839 8.86431 11.3541 8.6875 11.3541Z" fill="black"/>
</svg>
