<svg width="20" height="20" viewBox="0 0 20 20" fill="none" xmlns="http://www.w3.org/2000/svg">
<path d="M17.1251 14.8751C16.3567 14.8751 15.6981 15.3379 15.4081 16.0001H12.1123C11.8025 15.1269 10.9785 14.5 10 14.5C9.02147 14.5 8.1982 15.1269 7.8877 16.0001H4.5919C4.30188 15.3379 3.6433 14.8751 2.87493 14.8751C1.83925 14.8751 1 15.7143 1 16.75C1 17.7857 1.83925 18.6249 2.87493 18.6249C3.64398 18.6249 4.30255 18.1607 4.5919 17.4999H7.8877C8.19752 18.3716 9.02147 19 10 19C10.9785 19 11.8025 18.3716 12.1123 17.4999H15.4081C15.6974 18.1607 16.356 18.6249 17.1251 18.6249C18.1607 18.6249 19 17.7857 19 16.75C19 15.7143 18.1607 14.8751 17.1251 14.8751ZM10 17.4999C9.58532 17.4999 9.25007 17.1647 9.25007 16.75C9.25007 16.3353 9.58532 16.0001 10 16.0001C10.4147 16.0001 10.7499 16.3353 10.7499 16.75C10.7499 17.1647 10.4147 17.4999 10 17.4999Z" fill="black"/>
<path d="M10 1C7.10178 1 4.75008 3.34945 4.75008 6.24993C4.75008 7.6987 5.33733 9.01113 6.28818 9.96198L10 13.375L13.7127 9.9604C14.6634 9.01113 15.2508 7.6987 15.2499 6.24858C15.2499 3.35102 12.8998 1 10 1ZM10 8.49993C8.75778 8.49993 7.75001 7.49215 7.75001 6.24993C7.75001 5.0077 8.75778 3.99992 10 3.99992C11.2429 3.99992 12.25 5.0077 12.25 6.24993C12.25 7.49215 11.2429 8.49993 10 8.49993Z" fill="black"/>
</svg>
