<svg width="15" height="18" viewBox="0 0 15 18" fill="none" xmlns="http://www.w3.org/2000/svg">
<path d="M10.5281 9.82938C10.5884 9.88915 10.6362 9.96025 10.6688 10.0386C10.7015 10.1169 10.7183 10.201 10.7183 10.2858C10.7183 10.3707 10.7015 10.4547 10.6688 10.533C10.6362 10.6114 10.5884 10.6825 10.5281 10.7423L7.95664 13.3137C7.89688 13.374 7.82578 13.4218 7.74744 13.4544C7.6691 13.4871 7.58508 13.5039 7.50021 13.5039C7.41534 13.5039 7.33132 13.4871 7.25298 13.4544C7.17464 13.4218 7.10354 13.374 7.04378 13.3137L4.47232 10.7423C4.41238 10.6823 4.36484 10.6112 4.3324 10.5328C4.29996 10.4545 4.28326 10.3706 4.28326 10.2858C4.28326 10.201 4.29996 10.1171 4.3324 10.0388C4.36484 9.96048 4.41238 9.88933 4.47232 9.82938C4.59338 9.70833 4.75756 9.64032 4.92876 9.64032C5.01352 9.64032 5.09746 9.65702 5.17578 9.68946C5.25409 9.7219 5.32525 9.76945 5.38519 9.82938L6.85735 11.308V6.42864C6.85735 6.25814 6.92508 6.09462 7.04564 5.97406C7.1662 5.8535 7.32971 5.78577 7.50021 5.78577C7.67071 5.78577 7.83422 5.8535 7.95478 5.97406C8.07534 6.09462 8.14307 6.25814 8.14307 6.42864V11.308L9.61523 9.82938C9.67499 9.76913 9.74609 9.7213 9.82443 9.68867C9.90277 9.65603 9.9868 9.63923 10.0717 9.63923C10.1565 9.63923 10.2406 9.65603 10.3189 9.68867C10.3972 9.7213 10.4683 9.76913 10.5281 9.82938ZM14.5717 4.96291V16.0716C14.5717 16.5831 14.3685 17.0736 14.0068 17.4353C13.6452 17.797 13.1546 18.0002 12.6431 18.0002H2.3573C1.84581 18.0002 1.35526 17.797 0.993582 17.4353C0.631901 17.0736 0.428711 16.5831 0.428711 16.0716V1.92859C0.428711 1.4171 0.631901 0.926555 0.993582 0.564874C1.35526 0.203193 1.84581 2.54355e-06 2.3573 2.54355e-06H10.1102C10.3936 -0.000457584 10.6735 0.0615154 10.9302 0.181514C11.1868 0.301513 11.4139 0.47659 11.5953 0.694295L14.1217 3.72861C14.4115 4.0747 14.5708 4.51149 14.5717 4.96291ZM10.7145 1.64573V3.21432C10.7145 3.38482 10.7823 3.54833 10.9028 3.66889C11.0234 3.78945 11.1869 3.85718 11.3574 3.85718H12.5531L10.7145 1.64573ZM13.286 5.14291H11.3574C10.8459 5.14291 10.3554 4.93972 9.99367 4.57804C9.63199 4.21636 9.4288 3.72581 9.4288 3.21432V1.28573H2.3573C2.1868 1.28573 2.02329 1.35346 1.90273 1.47402C1.78217 1.59458 1.71444 1.7581 1.71444 1.92859V16.0716C1.71444 16.2421 1.78217 16.4056 1.90273 16.5262C2.02329 16.6467 2.1868 16.7145 2.3573 16.7145H12.6431C12.8136 16.7145 12.9771 16.6467 13.0977 16.5262C13.2183 16.4056 13.286 16.2421 13.286 16.0716V5.14291Z" fill="white"/>
</svg>
