<svg width="30" height="30" viewBox="0 0 30 30" fill="none" xmlns="http://www.w3.org/2000/svg">
<rect x="0.25" y="0.25" width="29.5" height="29.5002" rx="3.75" fill="#F4E2FF"/>
<rect x="0.25" y="0.25" width="29.5" height="29.5002" rx="3.75" stroke="#E4B5FF" stroke-width="0.5"/>
<path d="M18.0281 15.8294C18.0884 15.8891 18.1362 15.9602 18.1688 16.0386C18.2015 16.1169 18.2183 16.201 18.2183 16.2858C18.2183 16.3707 18.2015 16.4547 18.1688 16.533C18.1362 16.6114 18.0884 16.6825 18.0281 16.7423L15.4566 19.3137C15.3969 19.374 15.3258 19.4218 15.2474 19.4544C15.1691 19.4871 15.0851 19.5039 15.0002 19.5039C14.9153 19.5039 14.8313 19.4871 14.753 19.4544C14.6746 19.4218 14.6035 19.374 14.5438 19.3137L11.9723 16.7423C11.9124 16.6823 11.8648 16.6112 11.8324 16.5328C11.8 16.4545 11.7833 16.3706 11.7833 16.2858C11.7833 16.201 11.8 16.1171 11.8324 16.0388C11.8648 15.9605 11.9124 15.8893 11.9723 15.8294C12.0934 15.7083 12.2576 15.6403 12.4288 15.6403C12.5135 15.6403 12.5975 15.657 12.6758 15.6895C12.7541 15.7219 12.8252 15.7694 12.8852 15.8294L14.3573 17.308V12.4286C14.3573 12.2581 14.4251 12.0946 14.5456 11.9741C14.6662 11.8535 14.8297 11.7858 15.0002 11.7858C15.1707 11.7858 15.3342 11.8535 15.4548 11.9741C15.5753 12.0946 15.6431 12.2581 15.6431 12.4286V17.308L17.1152 15.8294C17.175 15.7691 17.2461 15.7213 17.3244 15.6887C17.4028 15.656 17.4868 15.6392 17.5717 15.6392C17.6565 15.6392 17.7406 15.656 17.8189 15.6887C17.8972 15.7213 17.9683 15.7691 18.0281 15.8294ZM22.0717 10.9629V22.0716C22.0717 22.5831 21.8685 23.0736 21.5068 23.4353C21.1452 23.797 20.6546 24.0002 20.1431 24.0002H9.8573C9.34581 24.0002 8.85526 23.797 8.49358 23.4353C8.1319 23.0736 7.92871 22.5831 7.92871 22.0716V7.92859C7.92871 7.4171 8.1319 6.92655 8.49358 6.56487C8.85526 6.20319 9.34581 6 9.8573 6H17.6102C17.8936 5.99954 18.1735 6.06152 18.4302 6.18151C18.6868 6.30151 18.9139 6.47659 19.0953 6.69429L21.6217 9.72861C21.9115 10.0747 22.0708 10.5115 22.0717 10.9629ZM18.2145 7.64573V9.21432C18.2145 9.38482 18.2823 9.54833 18.4028 9.66889C18.5234 9.78945 18.6869 9.85718 18.8574 9.85718H20.0531L18.2145 7.64573ZM20.786 11.1429H18.8574C18.3459 11.1429 17.8554 10.9397 17.4937 10.578C17.132 10.2164 16.9288 9.72581 16.9288 9.21432V7.28573H9.8573C9.6868 7.28573 9.52329 7.35346 9.40273 7.47402C9.28217 7.59458 9.21444 7.7581 9.21444 7.92859V22.0716C9.21444 22.2421 9.28217 22.4056 9.40273 22.5262C9.52329 22.6467 9.6868 22.7145 9.8573 22.7145H20.1431C20.3136 22.7145 20.4771 22.6467 20.5977 22.5262C20.7183 22.4056 20.786 22.2421 20.786 22.0716V11.1429Z" fill="#9E01F9"/>
</svg>
