<svg width="48" height="48" viewBox="0 0 48 48" fill="none" xmlns="http://www.w3.org/2000/svg">
<rect width="48" height="48" rx="4" fill="white"/>
<g clip-path="url(#clip0_3514_1717)">
<path d="M43.7742 24.3741C43.7742 22.7353 43.6403 21.5395 43.3507 20.2993H24.5186V27.696H35.5726C35.3498 29.5341 34.1464 32.3024 31.4719 34.1625L31.4344 34.4102L37.3888 38.9938L37.8013 39.0347C41.59 35.5578 43.7742 30.4421 43.7742 24.3741Z" fill="#4285F4"/>
<path d="M24.5193 43.8624C29.9348 43.8624 34.4813 42.0906 37.8021 39.0346L31.4726 34.1624C29.7789 35.3361 27.5056 36.1555 24.5193 36.1555C19.2151 36.1555 14.7133 32.6787 13.1085 27.873L12.8732 27.8929L6.68178 32.6543L6.60081 32.8779C9.89919 39.3888 16.6743 43.8624 24.5193 43.8624Z" fill="#34A853"/>
<path d="M13.1098 27.8729C12.6863 26.6328 12.4413 25.3039 12.4413 23.9309C12.4413 22.5578 12.6863 21.2291 13.0875 19.9889L13.0763 19.7248L6.80725 14.887L6.60214 14.9839C5.24272 17.6857 4.46268 20.7198 4.46268 23.9309C4.46268 27.1421 5.24272 30.176 6.60214 32.8778L13.1098 27.8729Z" fill="#FBBC05"/>
<path d="M24.5193 11.7062C28.2856 11.7062 30.8263 13.3229 32.275 14.6739L37.9357 9.18165C34.4591 5.9705 29.9348 3.99951 24.5193 3.99951C16.6743 3.99951 9.89919 8.47295 6.60081 14.9838L13.0862 19.9888C14.7132 15.1832 19.2151 11.7062 24.5193 11.7062Z" fill="#EB4335"/>
</g>
<defs>
<clipPath id="clip0_3514_1717">
<rect width="40.2541" height="40" fill="white" transform="translate(4 4)"/>
</clipPath>
</defs>
</svg>
