<svg width="133" height="115" viewBox="0 0 133 115" fill="none" xmlns="http://www.w3.org/2000/svg">
<path d="M117.239 30.3279V92.8654C117.239 93.9425 116.613 94.8726 115.704 95.3106C115.347 95.4836 114.946 95.5798 114.524 95.5798H17.9638C17.542 95.5798 17.1408 95.4836 16.785 95.3106C15.8755 94.8726 15.2494 93.9415 15.2494 92.8654V30.3279C15.2494 28.8291 16.4649 27.6135 17.9638 27.6135H114.524C116.023 27.6135 117.239 28.8291 117.239 30.3279Z" fill="#333333"/>
<path d="M113.635 31.8614H18.855V91.3308H113.635V31.8614Z" fill="#2EA66A"/>
<path d="M18.8149 31.8225V91.3699H113.673V31.8225H18.8149ZM113.596 91.292H18.8928V31.9004H113.596V91.292Z" fill="black"/>
<path d="M65.6521 29.7289C65.6521 29.4012 65.9171 29.1363 66.2447 29.1363C66.5724 29.1363 66.8374 29.4012 66.8374 29.7289C66.8374 30.0566 66.5724 30.3215 66.2447 30.3215C65.9171 30.3215 65.6521 30.0566 65.6521 29.7289Z" fill="white"/>
<path d="M132.313 111.856C132.212 112.088 131.904 112.234 131.417 112.234H1.07279C0.58614 112.234 0.276851 112.087 0.176277 111.856C0.0886803 111.649 0.165461 111.374 0.431495 111.075L13.5591 96.272C14.0998 95.6642 15.0169 95.3106 16.0605 95.3106H116.43C117.472 95.3106 118.391 95.6642 118.929 96.272L132.058 111.075C132.324 111.374 132.401 111.649 132.313 111.856Z" fill="white"/>
<path d="M119.91 105.053H12.5782C12.2894 105.053 12.072 104.808 12.2083 104.636L18.3368 96.9511C18.392 96.8819 18.4915 96.8408 18.6061 96.8408H113.884C113.998 96.8408 114.097 96.8819 114.153 96.9511L120.281 104.636C120.417 104.808 120.2 105.053 119.91 105.053Z" fill="#CCCCCC"/>
<path d="M78.5017 110.485H48.3728L49.3483 106.484H77.8323L78.5017 110.485Z" fill="#B3B3B3"/>
<path d="M132.317 111.856L131.781 113.848C131.61 114.482 130.757 114.996 129.872 114.996H2.61605C1.73252 114.996 0.879258 114.482 0.70839 113.848L0.171997 111.856H0.176324C0.276898 112.088 0.585106 112.234 1.07283 112.234H131.417C131.903 112.234 132.213 112.087 132.313 111.856H132.317Z" fill="#CCCCCC"/>
<path d="M100.216 16.6511V88.2954H31.8563V-3.05176e-05H83.565L100.216 16.6511Z" fill="#FCFCFC"/>
<path d="M45.7651 46.5978H40.786V64.395H45.7651V46.5978Z" fill="#008F47"/>
<path d="M53.3525 44.2077H48.3734V64.395H53.3525V44.2077Z" fill="#008F47"/>
<path d="M60.9386 40.0158H55.9595V64.395H60.9386V40.0158Z" fill="#008F47"/>
<path d="M68.5258 41.6704H63.5468V64.395H68.5258V41.6704Z" fill="#008F47"/>
<path d="M76.1132 36.7055H71.1342V64.395H76.1132V36.7055Z" fill="#008F47"/>
<path d="M83.6993 39.2428H78.7202V64.395H83.6993V39.2428Z" fill="#008F47"/>
<path d="M91.2866 32.955H86.3075V64.395H91.2866V32.955Z" fill="#008F47"/>
<path d="M49.7595 67.0782H40.786V70.1007H49.7595V67.0782Z" fill="#999999"/>
<path d="M60.1409 67.0782H51.1675V70.1008H60.1409V67.0782Z" fill="#B3B3B3"/>
<path d="M70.5224 67.0782H61.549V70.1008H70.5224V67.0782Z" fill="#CCCCCC"/>
<path d="M80.9052 67.0782H71.9318V70.1008H80.9052V67.0782Z" fill="#E6E6E6"/>
<path d="M91.2866 67.0782H82.3131V70.1008H91.2866V67.0782Z" fill="#F2F2F2"/>
<path d="M49.7595 72.7852H40.786V75.8077H49.7595V72.7852Z" fill="#999999"/>
<path d="M60.1409 72.7852H51.1675V75.8078H60.1409V72.7852Z" fill="#B3B3B3"/>
<path d="M70.5224 72.7852H61.549V75.8078H70.5224V72.7852Z" fill="#CCCCCC"/>
<path d="M80.9052 72.7852H71.9318V75.8078H80.9052V72.7852Z" fill="#E6E6E6"/>
<path d="M91.2866 72.7852H82.3131V75.8078H91.2866V72.7852Z" fill="#F2F2F2"/>
<path d="M49.7595 78.4908H40.786V81.5134H49.7595V78.4908Z" fill="#999999"/>
<path d="M60.1409 78.4908H51.1675V81.5133H60.1409V78.4908Z" fill="#B3B3B3"/>
<path d="M70.5224 78.4908H61.549V81.5133H70.5224V78.4908Z" fill="#CCCCCC"/>
<path d="M80.9052 78.4908H71.9318V81.5133H80.9052V78.4908Z" fill="#E6E6E6"/>
<path d="M91.2866 78.4908H82.3131V81.5133H91.2866V78.4908Z" fill="#F2F2F2"/>
<path d="M100.216 16.6511H83.5651V-4.57764e-05L100.216 16.6511Z" fill="#E6E6E6"/>
<path d="M60.2312 8.41109H27.0682V24.7151H60.2312V8.41109Z" fill="#008F47"/>
<path d="M31.6808 21.0781L34.7692 16.3623L31.9699 12.0415H34.1032L35.9152 14.9453L37.691 12.0415H39.805L36.9941 16.4307L40.0825 21.0794H37.8821L35.8791 17.9536L33.8696 21.0794H31.6808V21.0781Z" fill="white"/>
<path d="M41.0697 21.0782V12.115H42.8946V19.5553H47.4323V21.0782H41.0697Z" fill="white"/>
<path d="M48.2699 18.1382L50.0457 17.9653C50.1529 18.5615 50.3697 18.999 50.6962 19.2778C51.0227 19.5578 51.4641 19.6972 52.019 19.6972C52.6063 19.6972 53.0489 19.5733 53.3471 19.3242C53.6452 19.0752 53.7936 18.7848 53.7936 18.4518C53.7936 18.2376 53.7304 18.0569 53.6052 17.9059C53.48 17.7562 53.2606 17.6258 52.9483 17.5148C52.734 17.4413 52.2475 17.3096 51.4873 17.1199C50.5091 16.8773 49.8225 16.5792 49.4288 16.2255C48.8739 15.7287 48.5964 15.1221 48.5964 14.4071C48.5964 13.9464 48.7268 13.5166 48.9875 13.1152C49.2482 12.7152 49.625 12.4093 50.1154 12.2002C50.6071 11.9911 51.1995 11.8853 51.8939 11.8853C53.0283 11.8853 53.8814 12.1344 54.4557 12.6313C55.0287 13.1281 55.3294 13.7928 55.3591 14.6226L53.5342 14.7027C53.4555 14.238 53.289 13.9038 53.0322 13.7012C52.7753 13.4972 52.3894 13.3966 51.8758 13.3966C51.3454 13.3966 50.9311 13.505 50.6304 13.7231C50.4368 13.8625 50.3413 14.0496 50.3413 14.2845C50.3413 14.4987 50.4316 14.6807 50.6123 14.833C50.842 15.0266 51.4009 15.2279 52.2888 15.437C53.1767 15.6461 53.8336 15.8629 54.2582 16.0874C54.6841 16.312 55.0171 16.6179 55.2571 17.0063C55.4972 17.3948 55.6172 17.8749 55.6172 18.4454C55.6172 18.9629 55.4739 19.4481 55.1861 19.8998C54.8983 20.3515 54.4918 20.6884 53.9652 20.9078C53.4387 21.1272 52.7844 21.2382 51.9984 21.2382C50.8562 21.2382 49.9786 20.9736 49.3656 20.4458C48.7552 19.9179 48.3886 19.1487 48.2699 18.1382Z" fill="white"/>
</svg>
