<svg width="20" height="20" viewBox="0 0 20 20" fill="none" xmlns="http://www.w3.org/2000/svg">
<g clip-path="url(#clip0_3514_3052)">
<path d="M10.765 13.8251L7.70487 16.8853C7.70487 16.8853 7.70487 16.8854 7.7048 16.8854C7.7048 16.8854 7.7048 16.8855 7.70473 16.8855C6.43929 18.151 4.38014 18.151 3.11455 16.8855C2.50145 16.2723 2.16389 15.4572 2.16389 14.5903C2.16389 13.7234 2.50145 12.9084 3.11434 12.2953C3.11441 12.2953 3.11448 12.2952 3.11455 12.2951L6.17465 9.23496C6.59711 8.81243 6.59711 8.12734 6.17457 7.70488C5.75211 7.28242 5.06703 7.28242 4.64449 7.70488L1.5844 10.765C1.58418 10.7653 1.58396 10.7655 1.58375 10.7658C0.562466 11.7874 0 13.1457 0 14.5903C0 16.0353 0.562682 17.3937 1.58447 18.4155C2.63915 19.4701 4.02439 19.9975 5.40971 19.9975C6.79503 19.9975 8.18035 19.4701 9.23489 18.4155C9.23496 18.4155 9.23496 18.4154 9.23496 18.4154L12.2951 15.3552C12.7175 14.9328 12.7175 14.2477 12.295 13.8251C11.8726 13.4027 11.1876 13.4027 10.765 13.8251Z" fill="black"/>
<path d="M19.9999 5.40969C19.9999 3.96472 19.4371 2.60623 18.4153 1.58444C16.306 -0.524766 12.874 -0.524694 10.7649 1.58444C10.7648 1.58459 10.7647 1.58466 10.7646 1.58481L7.7046 4.64476C7.28206 5.06722 7.28206 5.75238 7.7046 6.17484C7.91594 6.38618 8.19277 6.49178 8.46967 6.49178C8.74651 6.49178 9.02348 6.38611 9.23468 6.17484L12.2947 3.11489C12.2948 3.11474 12.2949 3.11467 12.2951 3.11453C13.5605 1.84909 15.6197 1.84902 16.8852 3.11453C17.4983 3.72763 17.836 4.54277 17.836 5.40969C17.836 6.27654 17.4984 7.09153 16.8855 7.70463L16.8852 7.70485L13.8251 10.765C13.4027 11.1875 13.4027 11.8726 13.8252 12.2951C14.0365 12.5064 14.3134 12.612 14.5902 12.612C14.8671 12.612 15.144 12.5064 15.3553 12.2951L18.4154 9.23493C18.4156 9.23472 18.4158 9.23443 18.416 9.23421C19.4373 8.21257 19.9999 6.8543 19.9999 5.40969Z" fill="black"/>
<path d="M6.1753 13.8251C6.38657 14.0364 6.66347 14.1421 6.9403 14.1421C7.21721 14.1421 7.49412 14.0364 7.70538 13.8251L13.8257 7.70481C14.2483 7.28235 14.2483 6.59726 13.8257 6.17473C13.4033 5.75226 12.7182 5.75226 12.2956 6.17473L6.1753 12.295C5.75276 12.7176 5.75276 13.4027 6.1753 13.8251Z" fill="black"/>
</g>
<defs>
<clipPath id="clip0_3514_3052">
<rect width="20" height="20" fill="white"/>
</clipPath>
</defs>
</svg>
