<svg width="24" height="24" viewBox="0 0 24 24" fill="none" xmlns="http://www.w3.org/2000/svg">
<path d="M20.6719 6.58595V22.4297C20.6719 23.2828 19.9828 23.9719 19.1297 23.9719H4.87031C4.01719 23.9719 3.32812 23.2828 3.32812 22.4297V1.57032C3.32812 0.7172 4.01719 0.0281372 4.87031 0.0281372H14.1141L20.6719 6.58595Z" fill="#23A566"/>
<path d="M15.7924 11.9484H8.20801C7.93613 11.9484 7.71582 12.1687 7.71582 12.4406V19.0453C7.71582 19.3172 7.93613 19.5375 8.20801 19.5375H15.7971C16.0689 19.5375 16.2893 19.3172 16.2893 19.0453V12.4453C16.2846 12.1734 16.0643 11.9484 15.7924 11.9484ZM8.7002 15.1172H11.508V16.3687H8.7002V15.1172ZM12.4924 15.1172H15.3002V16.3687H12.4924V15.1172ZM15.3002 14.1328H12.4924V12.9375H15.3002V14.1328ZM11.508 12.9375V14.1328H8.7002V12.9375H11.508ZM8.7002 17.3578H11.508V18.5531H8.7002V17.3578ZM12.4924 18.5531V17.3578H15.3002V18.5531H12.4924Z" fill="white"/>
<path opacity="0.19" d="M14.9951 6.34687L20.6717 10.9453V6.62812L17.4514 4.75781L14.9951 6.34687Z" fill="black"/>
<path d="M20.6721 6.58595H15.6564C14.8033 6.58595 14.1143 5.89689 14.1143 5.04376V0.0281372L20.6721 6.58595Z" fill="#8ED1B1"/>
</svg>
