<svg width="20" height="20" viewBox="0 0 20 20" fill="none" xmlns="http://www.w3.org/2000/svg">
<path d="M2.43005 5.85938L3.46791 18.3881C3.54228 19.2916 4.31189 20 5.21884 20H14.7815C15.6885 20 16.4581 19.2916 16.5325 18.3881L17.5703 5.85938H2.43005ZM7.06994 17.6562C6.76322 17.6562 6.50517 17.4177 6.48572 17.1069L5.89978 7.65379C5.87974 7.33051 6.12521 7.05242 6.44794 7.03238C6.78267 7.00891 7.04876 7.25727 7.06935 7.58055L7.65529 17.0337C7.67603 17.3684 7.41115 17.6562 7.06994 17.6562ZM10.5861 17.0703C10.5861 17.3942 10.324 17.6562 10.0002 17.6562C9.6763 17.6562 9.41423 17.3942 9.41423 17.0703V7.61719C9.41423 7.29332 9.6763 7.03125 10.0002 7.03125C10.324 7.03125 10.5861 7.29332 10.5861 7.61719V17.0703ZM14.1006 7.65383L13.5146 17.107C13.4954 17.4145 13.239 17.6709 12.8932 17.6551C12.5705 17.6351 12.325 17.357 12.3451 17.0337L12.931 7.58059C12.951 7.2573 13.2343 7.02211 13.5524 7.03242C13.8751 7.05246 14.1206 7.33055 14.1006 7.65383Z" fill="white"/>
<path d="M17.6173 2.34375H14.1017V1.75781C14.1017 0.788516 13.3132 0 12.3439 0H7.65637C6.68708 0 5.89856 0.788516 5.89856 1.75781V2.34375H2.38293C1.73571 2.34375 1.21106 2.8684 1.21106 3.51562C1.21106 4.16277 1.73571 4.6875 2.38293 4.6875C7.77223 4.6875 12.2282 4.6875 17.6173 4.6875C18.2645 4.6875 18.7892 4.16277 18.7892 3.51562C18.7892 2.8684 18.2645 2.34375 17.6173 2.34375ZM12.9298 2.34375H7.07043V1.75781C7.07043 1.43453 7.33309 1.17188 7.65637 1.17188H12.3439C12.6672 1.17188 12.9298 1.43453 12.9298 1.75781V2.34375Z" fill="white"/>
</svg>
