<svg width="16" height="10" viewBox="0 0 16 10" fill="none" xmlns="http://www.w3.org/2000/svg">
<path d="M7.13629 9.58342C7.00643 9.58342 6.89758 9.53941 6.80973 9.45142C6.72188 9.36341 6.67796 9.25441 6.67796 9.12439C6.67796 8.99438 6.72188 8.8856 6.80973 8.79806C6.89758 8.71052 7.00643 8.66675 7.13629 8.66675H8.8461C8.97596 8.66675 9.08482 8.71075 9.17267 8.79875C9.26051 8.88675 9.30444 8.99576 9.30444 9.12577C9.30444 9.25578 9.26051 9.36456 9.17267 9.4521C9.08482 9.53964 8.97596 9.58342 8.8461 9.58342H7.13629ZM3.69879 5.45842C3.56893 5.45842 3.46008 5.41441 3.37223 5.32641C3.28438 5.23841 3.24046 5.12941 3.24046 4.99939C3.24046 4.86938 3.28438 4.7606 3.37223 4.67306C3.46008 4.58552 3.56893 4.54175 3.69879 4.54175H12.2836C12.4135 4.54175 12.5223 4.58575 12.6102 4.67375C12.698 4.76175 12.7419 4.87076 12.7419 5.00077C12.7419 5.13078 12.698 5.23956 12.6102 5.3271C12.5223 5.41464 12.4135 5.45842 12.2836 5.45842H3.69879ZM1.12502 1.33341C0.995159 1.33341 0.886305 1.28941 0.798458 1.20141C0.710611 1.11341 0.666687 1.00441 0.666687 0.874393C0.666687 0.744379 0.710611 0.635602 0.798458 0.54806C0.886305 0.460518 0.995159 0.416748 1.12502 0.416748H14.875C15.0049 0.416748 15.1137 0.460748 15.2016 0.548748C15.2894 0.636748 15.3334 0.745756 15.3334 0.87577C15.3334 1.00578 15.2894 1.11456 15.2016 1.2021C15.1137 1.28964 15.0049 1.33341 14.875 1.33341H1.12502Z" fill="#323338"/>
</svg>
