<svg width="20" height="20" viewBox="0 0 20 20" fill="none" xmlns="http://www.w3.org/2000/svg">
<path d="M2.51651 9.29782C2.29984 9.08115 2.29984 8.73114 2.51651 8.51447L6.71095 4.32003C7.2054 3.82558 7.96651 3.69225 8.59985 3.99224L11.9109 5.54782C12.1165 5.64782 12.3721 5.60336 12.5387 5.4367L16.6943 1.28116C16.9109 1.06448 17.2665 1.06448 17.4832 1.28116C17.6999 1.4978 17.6999 1.8478 17.4832 2.06448L13.3221 6.22558C12.8276 6.72003 12.0665 6.85336 11.4332 6.55337L8.12761 4.99783C7.91649 4.8978 7.66096 4.94225 7.4943 5.10335L3.30539 9.29782C3.19427 9.4089 3.05538 9.45892 2.91097 9.45892C2.76652 9.45892 2.62763 9.4089 2.51651 9.29782Z" fill="white"/>
<path d="M9.3055 10.8814V17.7703C9.3055 18.3869 8.80552 18.8814 8.19439 18.8814H7.08328C6.47218 18.8814 5.97217 18.3869 5.97217 17.7703V10.8814C5.97217 10.2703 6.47218 9.77026 7.08328 9.77026H8.19439C8.80552 9.77026 9.3055 10.2703 9.3055 10.8814Z" fill="white"/>
<path d="M18.7501 6.98123V17.7701C18.7501 18.3868 18.2501 18.8813 17.639 18.8813H16.5279C15.9168 18.8813 15.4167 18.3868 15.4167 17.7701V6.98123C15.4167 6.37013 15.9168 5.87012 16.5279 5.87012H17.639C18.2501 5.87012 18.7501 6.37013 18.7501 6.98123Z" fill="white"/>
<path d="M4.58346 15.8479V17.7702C4.58346 18.3868 4.08348 18.8813 3.47234 18.8813H2.36123C1.75014 18.8813 1.25012 18.3868 1.25012 17.7702V15.8479C1.25012 15.2368 1.75014 14.7368 2.36123 14.7368H3.47234C4.08348 14.7368 4.58346 15.2368 4.58346 15.8479Z" fill="white"/>
<path d="M14.028 12.8147V17.7703C14.028 18.387 13.5281 18.8814 12.9169 18.8814H11.8058C11.1947 18.8814 10.6947 18.387 10.6947 17.7703V12.8147C10.6947 12.2036 11.1947 11.7036 11.8058 11.7036H12.9169C13.5281 11.7036 14.028 12.2036 14.028 12.8147Z" fill="white"/>
</svg>
