<svg width="14" height="18" viewBox="0 0 14 18" fill="none" xmlns="http://www.w3.org/2000/svg">
<path d="M5.75012 2.125V15.875C5.75012 16.3723 5.55258 16.8492 5.20095 17.2008C4.84932 17.5525 4.3724 17.75 3.87512 17.75H2.00012C1.50284 17.75 1.02593 17.5525 0.674297 17.2008C0.322666 16.8492 0.125122 16.3723 0.125122 15.875V2.125C0.125122 1.62772 0.322666 1.15081 0.674297 0.799175C1.02593 0.447544 1.50284 0.25 2.00012 0.25H3.87512C4.3724 0.25 4.84932 0.447544 5.20095 0.799175C5.55258 1.15081 5.75012 1.62772 5.75012 2.125ZM12.0001 0.25H10.1251C9.62784 0.25 9.15093 0.447544 8.7993 0.799175C8.44767 1.15081 8.25012 1.62772 8.25012 2.125V15.875C8.25012 16.3723 8.44767 16.8492 8.7993 17.2008C9.15093 17.5525 9.62784 17.75 10.1251 17.75H12.0001C12.4974 17.75 12.9743 17.5525 13.3259 17.2008C13.6776 16.8492 13.8751 16.3723 13.8751 15.875V2.125C13.8751 1.62772 13.6776 1.15081 13.3259 0.799175C12.9743 0.447544 12.4974 0.25 12.0001 0.25Z" fill="white"/>
</svg>
