<svg width="20" height="20" viewBox="0 0 20 20" fill="none" xmlns="http://www.w3.org/2000/svg">
<path d="M11.0607 9.51275L2.06071 1.79847C1.87171 1.63389 1.60429 1.59661 1.37414 1.70204C1.14657 1.80618 1 2.03504 1 2.28575V17.7143C1 17.965 1.14657 18.1939 1.37414 18.298C1.46029 18.3379 1.55157 18.3572 1.64286 18.3572C1.79329 18.3572 1.94243 18.3045 2.06071 18.2029L11.0607 10.4886C11.2047 10.3665 11.2857 10.1878 11.2857 10C11.2857 9.81232 11.2047 9.63361 11.0607 9.51275Z" fill="black"/>
<path d="M18.7756 9.51275L9.77556 1.79847C9.58656 1.63389 9.31913 1.59661 9.08899 1.70204C8.86142 1.80618 8.71484 2.03504 8.71484 2.28575V5.80732L11.897 8.53432C12.3264 8.90075 12.572 9.43432 12.572 10C12.572 10.5658 12.3251 11.1006 11.8957 11.467L8.71484 14.1928V17.7143C8.71484 17.965 8.86142 18.1939 9.08899 18.298C9.17513 18.3379 9.26642 18.3572 9.3577 18.3572C9.50813 18.3572 9.65727 18.3045 9.77556 18.2029L18.7756 10.4886C18.9196 10.3665 19.0006 10.1878 19.0006 10C19.0006 9.81232 18.9196 9.63361 18.7756 9.51275Z" fill="black"/>
</svg>
