<svg width="119" height="121" viewBox="0 0 119 121" fill="none" xmlns="http://www.w3.org/2000/svg">
<path d="M117.141 77.708C117.141 77.708 116.911 77.7163 116.486 77.7316C111.469 77.9122 78.8105 81.4007 74.6877 81.4007C70.2155 81.4007 30.1611 75.3731 30.1611 75.3731L36.3832 60.2068L108.326 60.5958" fill="#AB2618"/>
<path d="M74.6876 81.5811C70.2534 81.5811 31.7703 75.7978 30.1342 75.5517C30.0793 75.5434 30.0315 75.5104 30.004 75.4622C29.9766 75.414 29.973 75.3558 29.9939 75.3045L36.216 60.1383C36.2438 60.0706 36.3099 60.0263 36.383 60.0263C36.3834 60.0263 36.3835 60.0263 36.3839 60.0263L108.327 60.4152C108.426 60.4158 108.507 60.497 108.506 60.5969C108.505 60.6967 108.422 60.7801 108.324 60.7763L36.5038 60.3882L30.4153 75.2287C33.6728 75.7175 70.4543 81.22 74.6873 81.22C76.8802 81.22 87.1746 80.2295 97.1304 79.2717C105.876 78.4304 114.136 77.6354 116.479 77.5513L117.134 77.5276C117.237 77.5175 117.317 77.6017 117.321 77.7015C117.325 77.8012 117.247 77.8849 117.147 77.8884L116.492 77.912C114.16 77.996 105.904 78.7902 97.1649 79.631C87.2013 80.5897 76.8979 81.5811 74.6876 81.5811Z" fill="#8C1A0A"/>
<path d="M68.7394 120.08H63.7754L64.3959 77.7914L69.4529 76.2284L68.7394 120.08Z" fill="#E49259"/>
<path d="M68.7393 120.26H63.7753C63.7271 120.26 63.6807 120.241 63.6467 120.207C63.6128 120.172 63.594 120.126 63.5947 120.077L64.2153 77.7887C64.2166 77.7105 64.2678 77.6419 64.3426 77.619L69.3997 76.056C69.4552 76.0386 69.5151 76.0493 69.5615 76.0839C69.6077 76.1186 69.6345 76.1735 69.6336 76.2315L68.92 120.083C68.9182 120.182 68.8379 120.26 68.7393 120.26ZM63.9586 119.899H68.5618L69.2683 76.4743L64.5744 77.9252L63.9586 119.899Z" fill="#B37445"/>
<path d="M81.6836 77.3173C81.6836 76.734 70.8711 76.1236 69.4532 76.2285C68.0352 76.3334 68.3539 120.08 68.3539 120.08H83.6491C83.6491 120.08 81.6836 79.9422 81.6836 77.3173Z" fill="#E49259"/>
<path d="M83.6486 120.26H68.3534C68.2541 120.26 68.1736 120.18 68.1729 120.081C68.1722 119.972 68.0943 109.018 68.1909 98.192C68.3876 76.1263 69.0718 76.0757 69.4394 76.0484C69.5501 76.0401 69.7162 76.0362 69.9329 76.0362C71.1303 76.0362 74.0149 76.1667 76.7697 76.3852C81.8637 76.7889 81.8637 77.0945 81.8637 77.3175C81.8637 79.908 83.8091 119.67 83.829 120.071C83.8313 120.121 83.8135 120.169 83.7795 120.204C83.7454 120.24 83.6981 120.26 83.6486 120.26ZM68.5329 119.899H83.4592C83.3135 116.921 81.529 80.3572 81.5031 77.3771C80.7726 76.9467 72.6846 76.3971 69.9331 76.3971C69.7494 76.3971 69.6055 76.4001 69.5041 76.4059C68.5715 77.6086 68.4118 102.949 68.5329 119.899Z" fill="#B37445"/>
<path d="M17.285 39.6434C17.285 39.6434 16.5572 12.4232 38.7555 12.4232C60.9537 12.4232 67.504 39.2066 67.504 39.2066L54.2579 52.8895L24.5631 49.9782L17.285 39.6434Z" fill="#AB2618"/>
<path d="M54.258 53.07C54.2522 53.07 54.2462 53.0696 54.2403 53.0691L24.5454 50.1578C24.4931 50.1527 24.4458 50.1249 24.4154 50.0821L17.1373 39.7471C17.1168 39.7181 17.1054 39.6834 17.1045 39.6478C17.1009 39.5097 16.8243 25.742 24.5348 17.8226C28.14 14.1197 32.9243 12.2424 38.7555 12.2424C43.8555 12.2424 48.5514 13.6606 52.7132 16.458C56.0382 18.693 59.0299 21.8077 61.605 25.7154C65.984 32.3605 67.6631 39.0963 67.6798 39.1636C67.6944 39.2239 67.677 39.2875 67.6341 39.3321L54.3878 53.0149C54.3536 53.0503 54.3067 53.07 54.258 53.07ZM24.6631 49.8066L54.189 52.7013L67.3044 39.1535C67.0834 38.3102 65.3613 32.0686 61.2979 25.9056C57.2969 19.8373 50.1382 12.6035 38.7557 12.6035C33.0265 12.6035 28.3294 14.4438 24.7949 18.0734C17.4334 25.6328 17.4528 38.6378 17.4647 39.5846L24.6631 49.8066Z" fill="#8C1A0A"/>
<path d="M25.7274 40.0799C25.4246 39.5752 25.7196 38.0761 25.747 37.5278C26.013 32.2135 27.4066 27.1096 31.2502 23.2372C36.5173 17.9307 44.0043 17.2934 51.0916 17.7146C56.077 18.0109 60.9672 19.6555 64.5926 23.1946C70.7062 29.1626 73.763 56.3829 73.763 56.3829L56.7323 64.8255L37.5179 59.7308C37.5179 59.7308 25.7312 40.0864 25.7274 40.0799Z" fill="#8C1A0A"/>
<path d="M56.7324 65.0063C56.7168 65.0063 56.7013 65.0043 56.6861 65.0003L37.4718 59.9056C37.4265 59.8935 37.3875 59.8642 37.3633 59.824C36.1569 57.8132 25.5763 40.1788 25.5724 40.1723C25.3317 39.771 25.403 38.9731 25.5128 38.0491C25.5384 37.833 25.5606 37.6465 25.567 37.5188C25.8793 31.2745 27.6965 26.5615 31.1223 23.1099C34.9699 19.2332 40.2488 17.4277 47.7353 17.4277C48.7958 17.4277 49.8971 17.4624 51.1025 17.5342C56.641 17.8634 61.3495 19.7761 64.7191 23.0652C70.8088 29.0101 73.8177 55.2485 73.943 56.3627C73.9515 56.4381 73.9117 56.5107 73.8437 56.5445L56.8127 64.9873C56.7874 64.9999 56.76 65.0063 56.7324 65.0063ZM37.635 59.5753L56.7129 64.634L73.5692 56.2774C73.3325 54.2625 70.2536 28.9731 64.4667 23.3237C60.2893 19.246 54.8817 18.1208 51.0808 17.8948C49.8827 17.8235 48.7882 17.789 47.7349 17.789C40.3512 17.789 35.1537 19.5607 31.3783 23.3643C28.0181 26.7498 26.2352 31.3858 25.9273 37.5369C25.9203 37.6766 25.8975 37.8691 25.8712 38.0915C25.8015 38.6776 25.685 39.6583 25.8822 39.9869C25.9037 40.0228 36.9085 58.364 37.635 59.5753Z" fill="#8C1A0A"/>
<path d="M68.6686 76.7618C68.6686 76.7618 49.1632 90.5901 34.6068 95.5393C20.0506 100.489 -0.182724 96.4127 0.254023 89.2801C0.69077 82.1475 23.9808 71.2303 23.9808 71.2303L52.0744 65.4078L67.0673 72.6859L68.6686 76.7618Z" fill="#CA2F21"/>
<path d="M20.4539 97.8991C12.0515 97.8991 4.41486 95.7824 1.45115 92.6316C0.464815 91.583 0.00134663 90.4517 0.0737466 89.2691C0.511938 82.112 22.9491 71.5147 23.904 71.0671C23.9168 71.0611 23.9302 71.0566 23.9439 71.0537L52.0376 65.2312C52.0768 65.2233 52.1172 65.2281 52.1532 65.2457L67.1461 72.5239C67.1867 72.5436 67.2187 72.5781 67.2353 72.6203L68.8366 76.696C68.8669 76.7733 68.8406 76.8612 68.7729 76.9093C68.5777 77.0479 49.0791 90.8095 34.6647 95.7105C30.4536 97.1423 25.5394 97.8991 20.4539 97.8991ZM24.0383 71.4029C23.2598 71.7709 0.854258 82.4326 0.434302 89.2913C0.368221 90.3704 0.799011 91.4109 1.71439 92.3843C4.61418 95.467 12.145 97.538 20.4541 97.538C25.5004 97.538 30.3743 96.788 34.5488 95.3686C48.3362 90.6806 66.8124 77.8431 68.4488 76.6957L66.9251 72.8179L52.051 65.5972L24.0383 71.4029Z" fill="#8C1A0A"/>
<path d="M66.4758 70.5323C66.4758 70.5323 44.4541 86.2442 34.4156 89.7015C24.3771 93.1589 10.4234 90.3116 10.7245 85.3292C11.0257 80.3466 27.0873 72.7204 27.0873 72.7204L46.4618 68.653L58.4056 70.2956L66.4758 70.5323Z" fill="#AB2618"/>
<path d="M24.655 91.4045C18.8737 91.4045 13.5997 89.9283 11.5317 87.7315C10.825 86.9808 10.4928 86.1689 10.5442 85.3182C10.8483 80.287 26.3502 72.8706 27.0099 72.5572C27.0227 72.551 27.0363 72.5463 27.0502 72.5436L46.4245 68.4762C46.4449 68.4719 46.4656 68.4712 46.4862 68.4741L58.4205 70.1152L66.4809 70.3519C66.5585 70.3543 66.6259 70.4057 66.6485 70.4799C66.671 70.5542 66.6438 70.6343 66.5806 70.6795C66.3601 70.8367 44.4224 86.446 34.4742 89.8723C31.5637 90.8745 28.1683 91.4045 24.655 91.4045ZM27.1455 72.8926C26.5091 73.1976 11.1913 80.5965 10.9046 85.34C10.8595 86.0875 11.1588 86.8088 11.7945 87.484C13.7988 89.6129 18.967 91.0434 24.655 91.0434C28.129 91.0434 31.4835 90.5203 34.3564 89.5309C43.4745 86.3904 62.7697 72.9253 65.9302 70.6971L58.3999 70.476C58.3934 70.4756 58.3871 70.4751 58.3806 70.4742L46.4678 68.8361L27.1455 72.8926Z" fill="#8C1A0A"/>
<path d="M21.5762 32.8831C21.5762 32.8831 22.7407 60.3945 25.2153 62.7234C27.6899 65.0525 69.0298 62.869 71.9409 60.8311C74.8521 58.7933 68.7385 34.6297 67.4285 33.0286C66.1184 31.4275 21.5762 32.8831 21.5762 32.8831Z" fill="#FFD97E"/>
<path d="M36.2248 63.908C36.2232 63.908 36.2238 63.908 36.222 63.908C29.5785 63.9078 25.8335 63.5536 25.0913 62.855C22.592 60.5027 21.4433 34.0169 21.3957 32.8906C21.3937 32.8424 21.4108 32.7957 21.4437 32.7603C21.4764 32.7249 21.522 32.7041 21.5701 32.7027C21.7555 32.6966 40.2666 32.0966 53.6243 32.0966C66.8988 32.0966 67.3848 32.6906 67.5679 32.9143C68.731 34.3359 73.6318 53.2296 72.8043 59.2237C72.6785 60.1347 72.4299 60.7088 72.0441 60.9789C69.9685 62.432 49.4556 63.908 36.2248 63.908ZM21.7642 33.0576C22.1742 42.5995 23.436 60.8011 25.3388 62.592C25.6438 62.879 27.3148 63.5467 36.222 63.5469C36.2227 63.5469 36.2239 63.5469 36.2247 63.5469C49.2465 63.5469 69.8618 62.066 71.8372 60.6832C72.1277 60.4797 72.3384 59.9579 72.4467 59.1744C73.2666 53.2352 68.4363 34.5461 67.2884 33.1429C67.1198 32.9369 65.451 32.4577 53.6245 32.4577C40.9841 32.4579 23.7249 32.9952 21.7642 33.0576Z" fill="#DE5C4F"/>
<path d="M67.5739 34.9209C69.6733 33.3464 67.1371 29.2439 67.1371 29.2439C67.1371 29.2439 22.7404 25.896 21.4303 27.0606C20.1203 28.2251 19.8292 32.592 21.4303 34.3387C23.0314 36.0853 46.3217 47.5848 50.8339 47.2937C55.3466 47.0027 65.2448 36.6677 67.5739 34.9209Z" fill="#FFD97E"/>
<path d="M50.6573 47.4798C50.6569 47.4798 50.6569 47.4798 50.6566 47.4798C45.6935 47.4793 22.8714 36.1777 21.2976 34.4608C20.4994 33.5901 20.0769 32.0142 20.1673 30.2458C20.2435 28.7571 20.6815 27.485 21.3107 26.9256C21.4173 26.831 21.6388 26.6341 24.5657 26.6341C34.8113 26.6341 66.829 29.0397 67.1511 29.0641C67.2087 29.0684 67.2607 29.1 67.2911 29.1493C67.3981 29.3224 69.8886 33.411 67.6825 35.0655C67.1255 35.4833 66.1231 36.405 64.8542 37.5717C60.9175 41.1913 54.3288 47.2495 50.8461 47.4742C50.7862 47.4779 50.7236 47.4798 50.6573 47.4798ZM24.5657 26.9952C22.0118 26.9952 21.6115 27.1493 21.5496 27.1965C20.9997 27.6852 20.5983 28.8898 20.5281 30.264C20.4438 31.9131 20.8408 33.4277 21.5639 34.2167C23.1236 35.9184 45.7388 47.1182 50.6568 47.1187H50.6571C50.7151 47.1187 50.7703 47.1169 50.8229 47.1137C54.1782 46.8972 60.7083 40.8932 64.6097 37.3059C65.886 36.1324 66.8942 35.2052 67.4658 34.7766C69.2583 33.4323 67.358 29.9807 67.0302 29.417C65.0949 29.2721 34.5222 26.9952 24.5657 26.9952Z" fill="#FBB342"/>
<path d="M13.791 42.8457C13.791 42.8457 14.9556 70.3569 17.4302 72.686C19.9048 75.0151 61.2446 72.8315 64.1558 70.7937C67.0669 68.7558 60.9534 44.5925 59.6433 42.9912C58.3333 41.3899 13.791 42.8457 13.791 42.8457Z" fill="#FFD97E"/>
<path d="M28.4397 73.8706C28.4381 73.8706 28.4386 73.8706 28.4368 73.8706C21.7933 73.8705 18.0484 73.5162 17.3062 72.8177C14.8068 70.4653 13.6582 43.9796 13.6105 42.8533C13.6085 42.8051 13.6259 42.7583 13.6585 42.7229C13.6912 42.6875 13.7369 42.6668 13.7849 42.6653C13.9703 42.6592 32.4814 42.0594 45.8393 42.0594C59.1138 42.0594 59.5998 42.6534 59.7827 42.8771C60.946 44.2988 65.8465 63.1921 65.019 69.1865C64.8934 70.0975 64.6447 70.6717 64.2589 70.9418C62.1835 72.3947 41.6703 73.8706 28.4397 73.8706ZM13.979 43.0201C14.389 52.5619 15.6509 70.7636 17.5537 72.5544C17.8586 72.8415 19.5296 73.5092 28.4368 73.5094C28.4375 73.5094 28.4388 73.5094 28.4397 73.5094C41.4614 73.5094 62.0768 72.0285 64.0522 70.6457C64.3427 70.4422 64.5534 69.9206 64.6617 69.1368C65.4814 63.1975 60.6514 44.5086 59.5034 43.1053C59.3348 42.8993 57.666 42.4202 45.8393 42.4202C33.1989 42.4203 15.9398 42.9578 13.979 43.0201Z" fill="#FBB342"/>
<path d="M59.7887 44.8836C61.8881 43.309 59.352 39.2066 59.352 39.2066C59.352 39.2066 14.9552 35.8587 13.6452 37.0232C12.3351 38.1877 12.0441 42.5547 13.6452 44.3013C15.2463 46.0481 38.5365 57.5476 43.0488 57.2564C47.5614 56.9652 57.4596 46.6302 59.7887 44.8836Z" fill="#FFD97E"/>
<path d="M42.8721 57.4423C42.8721 57.4423 42.8718 57.4423 42.8714 57.4423C37.9083 57.4418 15.0864 46.1402 13.5124 44.4233C12.7142 43.5526 12.2917 41.9769 12.3822 40.2084C12.4582 38.7198 12.8964 37.4475 13.5256 36.8881C13.6321 36.7935 13.8536 36.5966 16.7803 36.5966C27.0258 36.5966 59.0437 39.0022 59.3658 39.0266C59.4234 39.0309 59.4756 39.0625 59.5057 39.1118C59.6128 39.2849 62.1031 43.3735 59.8971 45.028C59.34 45.4458 58.3378 46.3675 57.0689 47.5342C53.1322 51.1538 46.5434 57.2121 43.0608 57.4367C43.0009 57.4405 42.9382 57.4423 42.8721 57.4423ZM16.7803 36.9577C14.2265 36.9577 13.8262 37.1118 13.7643 37.159C13.2143 37.6479 12.8128 38.8523 12.7426 40.2267C12.6582 41.8756 13.0553 43.3901 13.7785 44.1792C15.3383 45.8809 37.9535 57.0807 42.8714 57.0812H42.8718C42.9299 57.0812 42.985 57.0794 43.0375 57.0762C46.393 56.8597 52.9229 50.8557 56.8244 47.2684C58.1007 46.0949 59.1089 45.1677 59.6805 44.7391C61.4714 43.3958 59.5727 39.9434 59.2448 39.3795C57.3097 39.2347 26.7369 36.9577 16.7803 36.9577Z" fill="#FBB342"/>
<path d="M38.7559 12.4231C38.7559 12.4231 54.6951 12.2048 60.3719 32.074C66.0487 51.9432 61.0269 69.4109 62.1187 71.376C63.2104 73.3411 115.395 78.7996 117.141 77.708C118.888 76.6162 117.796 43.8647 115.831 36.4409C113.866 29.0173 108.626 25.5237 105.351 24.8687C102.076 24.2136 53.6033 10.458 38.7559 12.4231Z" fill="#CA2F21"/>
<path d="M115.534 78.0314C111.192 78.0314 98.6778 76.9513 85.7776 75.4636C77.1605 74.4697 62.6081 72.6286 61.9609 71.4636C61.6164 70.8434 61.8069 69.0393 62.1221 66.0504C62.8548 59.1108 64.2181 46.1936 60.1982 32.1235C54.6842 12.8254 39.4244 12.6035 38.7775 12.6035L38.758 12.6036C38.6621 12.5982 38.5825 12.5316 38.5757 12.4361C38.5688 12.3408 38.6372 12.2566 38.732 12.2442C39.7023 12.1158 40.8502 12.0506 42.1442 12.0506C56.9118 12.0506 88.8288 20.3945 100.844 23.5355C103.274 24.1709 104.879 24.5904 105.386 24.6917C109.212 25.4567 114.166 29.4454 116.006 36.3947C117.033 40.2761 117.777 50.7673 118.059 59.443C118.154 62.3733 118.561 77.0335 117.237 77.861C117.11 77.9404 116.802 78.0314 115.534 78.0314ZM40.8443 12.4356C45.3845 13.1476 56.1037 16.478 60.5455 32.0244C64.5848 46.1619 63.2164 59.1243 62.4814 66.0883C62.1947 68.8052 61.9876 70.7679 62.2765 71.2884C62.6114 71.8756 70.0247 73.2839 85.831 75.1063C98.7141 76.5921 111.206 77.6703 115.534 77.6703C116.765 77.6703 117.002 77.5818 117.046 77.5547C117.649 77.1774 118.067 70.8391 117.698 59.4546C117.417 50.7994 116.677 40.3411 115.657 36.487C113.584 28.6584 107.986 25.5799 105.315 25.0456C104.798 24.9422 103.189 24.5215 100.753 23.8847C88.7499 20.7467 56.8654 12.4114 42.1442 12.4114C41.6921 12.4115 41.2584 12.4197 40.8443 12.4356Z" fill="#8C1A0A"/>
<path d="M77.2568 2.08812C77.2568 2.08812 87.4463 3.10714 90.0664 4.27149C92.6865 5.43603 92.3955 11.9863 91.3765 13.2964C90.3574 14.6065 77.6936 12.5686 77.6936 12.5686L77.2568 2.08812Z" fill="#CA2F21"/>
<path d="M88.9153 13.9162C84.9768 13.9162 77.7371 12.7584 77.6646 12.7468C77.5799 12.7333 77.5165 12.6618 77.5129 12.5762L77.0763 2.09572C77.0742 2.04336 77.0947 1.99281 77.1327 1.9567C77.1708 1.92077 77.2228 1.90326 77.2746 1.90831C77.6916 1.95002 87.5229 2.9434 90.1394 4.10649C90.9923 4.48564 91.6305 5.4328 91.9849 6.84541C92.5939 9.27325 92.2375 12.4829 91.5186 13.4073C91.3489 13.6257 90.8939 13.9162 88.9153 13.9162ZM77.8675 12.4132C78.9129 12.5767 85.3144 13.5551 88.9153 13.5551C90.7482 13.5551 91.1472 13.2966 91.2337 13.1854C91.8902 12.3415 92.2105 9.22865 91.6347 6.93316C91.407 6.0259 90.9376 4.85631 89.9928 4.43653C87.6339 3.38791 78.9056 2.44147 77.4457 2.28891L77.8675 12.4132Z" fill="#8C1A0A"/>
<path d="M78.567 40.5166C78.567 40.5166 78.858 5.87254 78.2759 2.52463C77.6936 -0.823282 75.219 0.341256 75.3646 2.67015C75.5101 4.99923 75.9468 42.8455 75.9468 42.8455L78.567 40.5166Z" fill="#FDC032"/>
<path d="M75.9467 43.0262C75.922 43.0262 75.8973 43.0211 75.8738 43.0109C75.8091 42.9821 75.7671 42.9184 75.7662 42.8478C75.7618 42.4694 75.328 4.97956 75.1843 2.68153C75.1357 1.90499 75.3596 1.19182 75.7983 0.724745C76.0796 0.425396 76.4266 0.260376 76.7753 0.260376C77.583 0.260376 78.2103 1.09541 78.4536 2.49394C79.0319 5.81965 78.7591 39.1031 78.7474 40.5184C78.747 40.5693 78.725 40.6179 78.6867 40.6516L76.0664 42.9805C76.033 43.0105 75.9901 43.0262 75.9467 43.0262ZM76.7754 0.621291C76.5276 0.621291 76.2741 0.745691 76.0616 0.971738C75.6963 1.36064 75.5031 1.99129 75.5448 2.65878C75.6811 4.83728 76.0755 38.3991 76.1228 42.4475L78.3872 40.435C78.4022 38.569 78.6573 5.7718 78.098 2.55551C77.8873 1.34439 77.3929 0.621291 76.7754 0.621291Z" fill="#F58A33"/>
<path d="M74.1999 40.3712C71.6623 44.4315 74.9277 49.2505 79.2947 47.3582C83.6616 45.4659 83.8071 41.3902 81.9148 39.6434C80.0225 37.8966 75.6555 38.0421 74.1999 40.3712Z" fill="#FDC032"/>
<path d="M77.3708 47.9627H77.3704C75.8585 47.9625 74.5022 47.1444 73.7429 45.7739C72.821 44.1107 72.9345 42.0551 74.0471 40.2753C74.816 39.045 76.4773 38.2806 78.3822 38.2806C79.8367 38.2806 81.2031 38.7403 82.0376 39.5107C82.9841 40.3843 83.4241 41.7989 83.1855 43.2022C83.0028 44.2771 82.264 46.2682 79.3668 47.5238C78.6946 47.815 78.0229 47.9627 77.3708 47.9627ZM78.3821 38.6419C76.6006 38.6419 75.0567 39.3411 74.3531 40.4668C73.3113 42.1335 73.2014 44.0522 74.0586 45.5991C74.7536 46.8528 75.9916 47.6016 77.3704 47.6018H77.3708C77.9735 47.6018 78.5965 47.464 79.2232 47.1925C81.9641 46.0048 82.6592 44.1448 82.8297 43.1417C83.0478 41.8574 82.6504 40.5676 81.7926 39.7757C81.0231 39.0656 79.7483 38.6419 78.3821 38.6419Z" fill="#F58A33"/>
<path d="M76.3018 41.82C75.1008 43.7416 76.6463 46.0221 78.7128 45.1266C80.7794 44.2311 80.8484 42.3023 79.9529 41.4757C79.0573 40.649 76.9908 40.7178 76.3018 41.82Z" fill="#F89F33"/>
<path d="M77.8026 45.5077H77.8024C77.0519 45.5077 76.379 45.1022 76.0025 44.423C75.556 43.6174 75.6122 42.5834 76.1491 41.7243C76.5303 41.1145 77.3474 40.7357 78.2812 40.7357C79.0034 40.7357 79.6574 40.957 80.0757 41.3428C80.5469 41.7778 80.7663 42.4803 80.6482 43.1756C80.4957 44.0736 79.8166 44.8449 78.7851 45.2922C78.4549 45.4352 78.1243 45.5077 77.8026 45.5077ZM78.2812 41.0968C77.4708 41.0968 76.7709 41.4105 76.4552 41.9157C75.9809 42.6748 75.9298 43.5464 76.3183 44.2479C76.6301 44.8105 77.1851 45.1466 77.8026 45.1466C78.0749 45.1466 78.3569 45.0842 78.6414 44.9609C79.8973 44.4167 80.2147 43.571 80.2922 43.1153C80.39 42.539 80.2131 41.9614 79.8305 41.6081C79.4837 41.288 78.9045 41.0968 78.2812 41.0968Z" fill="#F58A33"/>
<path d="M72.8182 73.627C73.3159 68.2304 73.9188 49.9273 71.2886 36.1498C69.33 25.8908 63.8492 18.3869 60.1614 14.3144C58.1526 13.9542 56.192 13.6296 54.3027 13.3479C59.1777 16.0172 65.8784 22.3024 68.5227 37.0233C72.0985 56.9284 70.4048 68.8251 69.9931 73.2034C70.8809 73.3424 71.8266 73.4838 72.8182 73.627Z" fill="#AB2618"/>
<path d="M72.8183 73.8075C72.8097 73.8075 72.801 73.807 72.7925 73.8056C71.7673 73.6577 70.8162 73.515 69.9653 73.3816C69.871 73.3668 69.8046 73.2812 69.8136 73.1863C69.8452 72.849 69.8846 72.4673 69.9285 72.0405C70.441 67.0622 71.6413 55.4035 68.345 37.0549C65.7412 22.5595 59.2243 16.2481 54.216 13.5059C54.1393 13.464 54.1036 13.3731 54.1315 13.2902C54.1593 13.2073 54.2424 13.1564 54.3292 13.169C56.1725 13.4436 58.1453 13.7692 60.1931 14.1364C60.2325 14.1435 60.2684 14.1633 60.2951 14.1931C64.3331 18.6521 69.5489 26.075 71.4658 36.1157C73.9848 49.3105 73.5727 67.4118 72.998 73.6434C72.9935 73.6927 72.9687 73.7378 72.9299 73.7685C72.8979 73.794 72.8588 73.8075 72.8183 73.8075ZM70.1894 73.051C70.9422 73.1682 71.7702 73.2924 72.6556 73.421C73.2199 67.0355 73.5983 49.2098 71.1112 36.1834C69.2166 26.2592 64.07 18.9108 60.0689 14.4811C58.3919 14.1808 56.7661 13.9087 55.221 13.6699C60.1658 16.68 66.2128 23.1424 68.7005 36.9912C72.0057 55.3901 70.8018 67.0841 70.2878 72.0777C70.2511 72.4334 70.2177 72.7576 70.1894 73.051Z" fill="#8C1A0A"/>
<path d="M109.379 77.5583C109.584 71.0975 109.997 55.0979 109.427 45.1746C108.918 36.325 106.775 29.1142 104.536 24.6769C103.531 24.4265 101.796 23.97 99.5166 23.3749C102.275 26.1814 106.56 32.9895 106.952 48.3768C107.365 64.5956 106.753 73.3307 106.622 77.351C107.59 77.4283 108.512 77.4976 109.379 77.5583Z" fill="#AB2618"/>
<path d="M109.379 77.7389C109.374 77.7389 109.37 77.7387 109.366 77.7383C108.507 77.6782 107.579 77.6083 106.608 77.5312C106.512 77.5235 106.438 77.4417 106.442 77.3454C106.464 76.6671 106.5 75.8469 106.541 74.8972C106.756 70.022 107.115 61.8625 106.771 48.3816C106.376 32.8684 101.976 26.1348 99.3877 23.5017C99.3309 23.4437 99.3195 23.3549 99.3603 23.2847C99.4011 23.2143 99.4838 23.1807 99.5621 23.2004L100.848 23.5364C102.483 23.9635 103.774 24.301 104.579 24.5016C104.63 24.5142 104.673 24.5487 104.697 24.5956C105.962 27.1029 108.972 34.1263 109.607 45.1643C110.177 55.0977 109.763 71.1317 109.559 77.5643C109.557 77.6132 109.536 77.6594 109.499 77.6925C109.466 77.7224 109.423 77.7389 109.379 77.7389ZM106.808 77.1849C107.647 77.2512 108.451 77.3117 109.204 77.3651C109.411 70.8182 109.811 55.009 109.246 45.185C108.622 34.3211 105.687 27.3811 104.412 24.8322C103.6 24.629 102.339 24.2995 100.757 23.8859L100.077 23.7082C102.731 26.6658 106.755 33.5629 107.133 48.3726C107.476 61.8659 107.117 70.0334 106.902 74.9133C106.864 75.7824 106.83 76.5433 106.808 77.1849Z" fill="#8C1A0A"/>
<path d="M88.6093 75.6023C89.0883 69.8583 90.0712 51.4299 89.7756 41.9722C89.3389 27.9981 87.1555 23.4857 84.7412 19.6319C83.7522 19.3914 82.7467 19.1489 81.7246 18.9057C82.7889 21.9516 86.8643 25.6692 87.301 43.719C87.7107 60.6545 85.9917 71.5237 85.716 75.2748C86.6756 75.3856 87.6416 75.4947 88.6093 75.6023Z" fill="#AB2618"/>
<path d="M88.6091 75.7828C88.6024 75.7828 88.5959 75.7825 88.5893 75.7818C87.6212 75.6742 86.655 75.5649 85.6952 75.4541C85.5992 75.4431 85.529 75.358 85.536 75.2616C85.5898 74.5291 85.6978 73.5312 85.8346 72.2677C86.3992 67.0557 87.4502 57.3541 87.1203 43.7234C86.7693 29.2136 84.0804 24.0315 82.4741 20.9351C82.0935 20.2013 81.7645 19.5678 81.554 18.9653C81.5323 18.9028 81.5462 18.8337 81.5905 18.7847C81.6345 18.7356 81.702 18.7141 81.7663 18.73C82.7889 18.9734 83.7944 19.2159 84.7838 19.4564C84.8295 19.4676 84.8692 19.4961 84.8941 19.5358C87.3128 23.3969 89.52 28.0176 89.9558 41.9665C90.2507 51.3987 89.2715 69.8289 88.7889 75.6171C88.7851 75.6658 88.7615 75.7106 88.7239 75.7415C88.6913 75.7684 88.6506 75.7828 88.6091 75.7828ZM85.9094 75.1154C86.7507 75.2123 87.5968 75.3078 88.4445 75.4024C88.9314 69.4223 89.8861 51.2983 89.5951 41.978C89.1641 28.1946 87.0031 23.5951 84.6269 19.7899C83.7684 19.5813 82.8978 19.3712 82.0142 19.1603C82.2137 19.6499 82.4869 20.176 82.7944 20.7688C84.4152 23.8928 87.1281 29.1213 87.4812 43.7145C87.8114 57.3692 86.759 67.0862 86.1934 72.3064C86.0677 73.4695 85.9661 74.4067 85.9094 75.1154Z" fill="#8C1A0A"/>
<path d="M64.0106 69.4836C64.2754 66.5699 65.3206 65.5534 67.6497 66.718C69.9788 67.8825 71.8709 74.5784 71.7254 76.0339C71.5799 77.4895 67.7952 78.363 66.7762 77.7807C65.7574 77.1985 63.7195 72.686 64.0106 69.4836Z" fill="#FDC032"/>
<path d="M67.7461 78.1436C67.2828 78.1436 66.9264 78.0743 66.687 77.9375C65.6036 77.3184 63.5368 72.7046 63.8311 69.4672C63.9638 68.0069 64.3359 66.0655 66.0255 66.0655C66.5123 66.0655 67.07 66.2262 67.7308 66.5564C70.1297 67.7561 72.0544 74.5608 71.9054 76.052C71.7776 77.3288 69.3568 78.1436 67.7461 78.1436ZM66.0255 66.4266C65.3578 66.4266 64.4414 66.7453 64.1908 69.4999C63.8979 72.7205 65.9824 77.1189 66.8661 77.6239C67.0451 77.726 67.3578 77.7824 67.7461 77.7824C69.1716 77.7824 71.4452 77.0239 71.5461 76.0159C71.6859 74.6165 69.8013 67.9954 67.5694 66.8794C66.9685 66.579 66.4491 66.4266 66.0255 66.4266Z" fill="#F58A33"/>
<path d="M65.7202 68.5687C65.0027 69.7168 65.926 71.0794 67.1608 70.5444C68.3956 70.0092 68.4368 68.8568 67.9016 68.363C67.3666 67.8688 66.1319 67.91 65.7202 68.5687Z" fill="#F89F33"/>
<path d="M66.6171 70.8447C66.1417 70.8447 65.716 70.5885 65.478 70.1591C65.1983 69.6547 65.2328 69.0085 65.5676 68.4728C65.812 68.0815 66.3112 67.8479 66.9031 67.8479C67.3526 67.8479 67.7616 67.9871 68.0247 68.2301C68.324 68.5064 68.4637 68.9512 68.389 69.3909C68.2937 69.952 67.8723 70.4328 67.2329 70.71C67.0268 70.7993 66.8193 70.8447 66.6171 70.8447ZM66.9031 68.209C66.4436 68.209 66.0493 68.3834 65.8738 68.6642C65.6046 69.095 65.5748 69.5884 65.794 69.984C66.0471 70.4408 66.5624 70.6071 67.0896 70.3785C67.8085 70.067 67.9894 69.5882 68.0333 69.3304C68.0878 69.0099 67.9907 68.69 67.78 68.4955C67.5856 68.3161 67.2579 68.209 66.9031 68.209Z" fill="#F58A33"/>
<path d="M72.6297 76.5648C72.5011 76.3391 72.1666 76.5382 72.2837 76.767C73.5079 79.1548 73.7384 81.8558 72.9985 84.4282C72.61 85.7794 71.8468 87.0086 71.1665 88.2271C70.5263 89.3736 69.6412 90.6003 69.3005 91.8737C69.2512 92.0575 69.4901 92.2082 69.6259 92.0631C70.5971 91.0253 71.2118 89.5033 71.8963 88.2636C72.6011 86.9871 73.2952 85.7186 73.6936 84.3085C74.4236 81.7231 73.945 78.8726 72.6297 76.5648Z" fill="#D98B55"/>
<path d="M70.6934 77.523C70.5842 77.2872 70.1942 77.4552 70.2758 77.699C70.8489 79.4138 71.1927 81.1699 71.0977 82.984C71.0439 84.0126 70.7812 85.0432 70.3784 85.9885C70.0463 86.7679 69.4215 87.4042 69.1452 88.1936C69.0633 88.4279 69.35 88.616 69.5471 88.5027C71.0423 87.6429 71.6148 85.1544 71.7964 83.5841C72.0355 81.5189 71.5588 79.3913 70.6934 77.523Z" fill="#D98B55"/>
<path d="M69.7077 80.3731C69.652 80.2622 69.464 80.3404 69.5066 80.4578C69.9663 81.7232 69.6776 82.9184 68.9877 84.0328C68.8825 84.2027 69.1244 84.387 69.2623 84.2448C70.2662 83.2109 70.3359 81.6223 69.7077 80.3731Z" fill="#D98B55"/>
<path d="M81.6393 92.8138C79.9744 92.725 78.7646 91.9788 77.8674 90.5736C76.8286 88.9464 76.8071 86.8734 76.7491 85.009C76.6673 82.3765 76.4032 79.2755 74.1146 77.5623C74.0288 77.498 73.9266 77.6369 74.0017 77.7086C76.8676 80.4395 75.7139 84.6093 76.253 88.0993C76.6357 90.5777 78.6346 94.2405 81.7211 93.4179C82.0672 93.3256 81.9785 92.832 81.6393 92.8138Z" fill="#D98B55"/>
<path d="M80.3301 88.227C77.9131 87.2789 78.4004 83.7022 78.1973 81.6133C78.0386 79.9813 77.513 78.2674 76.0838 77.3198C75.8684 77.1772 75.6089 77.5101 75.8068 77.6788C77.76 79.3429 77.5195 81.9704 77.6499 84.2906C77.7317 85.7451 78.2088 88.9139 80.2541 88.7867C80.5876 88.7661 80.6268 88.3434 80.3301 88.227Z" fill="#D98B55"/>
<path d="M80.875 84.2475C80.2715 83.2863 79.6784 82.4088 79.3314 81.3127C78.9831 80.2124 79.0349 79.1358 79.0208 78.0045C79.0185 77.8193 78.7695 77.7985 78.7104 77.9624C77.9606 80.0494 78.7713 83.1312 80.4452 84.579C80.6707 84.7742 81.0486 84.5239 80.875 84.2475Z" fill="#D98B55"/>
<path d="M76.817 93.622C76.7512 92.3078 76.6608 90.924 75.8835 89.8118C75.1951 88.827 73.9488 88.4626 72.9397 89.1556C71.914 89.8601 71.4328 91.27 71.0717 92.396C70.601 93.8635 70.2914 95.4015 69.226 96.5799C69.0507 96.7738 69.3219 97.0477 69.5132 96.8671C71.223 95.2543 71.3249 92.7669 72.449 90.8083C72.9097 90.0056 73.6776 89.1929 74.6767 89.6905C75.3188 90.0103 75.6189 90.7585 75.8023 91.4018C76.1748 92.7073 76.0973 94.2004 76.1338 95.545C76.2195 98.7098 75.9131 101.785 74.3853 104.609C73.6662 105.938 72.7947 107.196 71.9196 108.426C71.4346 109.108 70.9264 109.772 70.407 110.428C69.9879 110.957 69.4908 111.46 69.1848 112.064C69.0667 112.296 69.3242 112.632 69.5746 112.453C70.8722 111.526 71.8667 109.845 72.7882 108.557C73.8518 107.071 74.886 105.525 75.6541 103.863C77.1226 100.684 76.9876 97.034 76.817 93.622Z" fill="#D98B55"/>
<path d="M74.8743 96.9702C74.5999 95.6035 73.4335 94.0915 71.9216 94.969C71.3 95.3298 70.9848 96.1381 70.7204 96.7606C70.2882 97.7785 69.7209 98.6482 69.0477 99.5216C68.928 99.6768 69.1733 99.8344 69.3046 99.7198C70.3503 98.8075 70.9131 97.6478 71.571 96.4576C72.0574 95.578 72.9524 95.0748 73.6657 96.0763C74.2289 96.8669 74.1474 97.9988 73.9857 98.8997C73.3808 102.271 70.9328 105.095 69.0115 107.785C68.7405 108.165 69.3205 108.569 69.6362 108.268C71.1323 106.838 72.2782 104.934 73.249 103.125C74.2159 101.323 75.2966 99.0732 74.8743 96.9702Z" fill="#D98B55"/>
<path d="M71.974 99.9196C71.6713 99.3159 71.0417 99.5643 70.6299 99.8606C69.9021 100.384 69.4274 101.186 69.2149 102.043C69.1387 102.351 69.5769 102.463 69.6827 102.172C69.8898 101.604 70.1736 101.135 70.5919 100.697C70.7662 100.525 70.9585 100.376 71.169 100.249C71.741 99.8714 71.449 101.545 71.4299 101.61C71.1287 102.624 70.2675 103.308 69.8735 104.253C69.784 104.467 70.0671 104.627 70.2382 104.533C70.9964 104.114 71.4625 103.152 71.8332 102.404C72.2328 101.597 72.3861 100.741 71.974 99.9196Z" fill="#D98B55"/>
<path d="M80.7191 95.7309C79.1379 96.4769 78.4355 98.28 78.0282 99.8745C77.5276 101.835 77.8298 103.852 78.2521 105.793C78.7215 107.951 79.1976 110.021 79.0184 112.246C78.9326 113.31 78.6764 114.358 78.3465 115.369C78.015 116.386 77.256 117.341 77.0549 118.377C77.0191 118.561 77.2233 118.791 77.4113 118.651C78.6284 117.742 79.1738 115.54 79.4999 114.13C79.9303 112.268 79.9041 110.354 79.5856 108.479C79.2251 106.358 78.5103 104.323 78.4633 102.153C78.4195 100.121 79.0877 97.2805 81.0067 96.2229C81.3326 96.0432 81.0466 95.5763 80.7191 95.7309Z" fill="#D98B55"/>
<path d="M81.6746 110.447C81.2243 107.166 79.4225 104.069 81.3115 100.899C81.4513 100.664 81.1184 100.398 80.9306 100.605C78.9951 102.729 79.839 105.962 80.463 108.426C80.8755 110.055 81.103 111.662 80.9996 113.344C80.9443 114.243 80.7574 115.125 80.5168 115.991C80.2965 116.782 79.8728 117.53 79.7298 118.336C79.6882 118.57 79.9659 118.783 80.154 118.583C81.0712 117.609 81.396 115.958 81.6261 114.685C81.8795 113.28 81.868 111.856 81.6746 110.447Z" fill="#D98B55"/>
<path d="M77.0228 109.516C75.6409 108.616 73.8827 109.234 72.7397 110.188C71.137 111.527 70.4368 113.74 69.3716 115.472C69.254 115.663 69.538 115.89 69.6861 115.714C71.413 113.661 72.7426 108.844 76.3277 109.978C78.3979 110.633 77.4941 113.416 76.9752 114.831C76.6659 115.674 76.2488 116.474 75.7913 117.245C75.369 117.956 74.7992 118.575 74.3973 119.292C74.1909 119.661 74.654 119.976 74.9556 119.723C76.5108 118.421 77.4415 116.044 78.0153 114.152C78.5124 112.513 78.6256 110.558 77.0228 109.516Z" fill="#D98B55"/>
<path d="M74.2872 113.35C73.2103 112.688 72.1945 113.814 71.4732 114.52C70.4594 115.512 69.5997 116.706 69.038 118.009C68.9657 118.177 69.1808 118.311 69.2864 118.154C70.324 116.611 71.4663 115.136 72.9967 114.047C73.8499 113.941 74.2203 114.21 74.1078 114.853C74.0908 115.14 74.0393 115.42 73.9538 115.693C73.8245 116.183 73.5647 116.637 73.3215 117.078C72.9111 117.823 72.3339 118.503 71.9406 119.257C71.728 119.187 71.4768 119.456 71.6249 119.659C71.681 119.736 71.7372 119.812 71.7933 119.889C71.924 120.068 72.1309 120.098 72.3028 119.955C73.2702 119.152 74.0437 117.67 74.4949 116.514C74.8139 115.697 75.2801 113.96 74.2872 113.35Z" fill="#D98B55"/>
<path d="M71.6609 116.964C70.8909 116.46 70.0131 117.777 69.7854 118.342C69.7061 118.539 70.0113 118.713 70.1438 118.551C70.4088 118.225 70.7846 117.535 71.2498 117.477C71.7328 117.416 71.1031 118.493 71.0682 118.622C71.0065 118.849 71.2446 118.995 71.4371 118.906C72.18 118.558 72.3848 117.437 71.6609 116.964Z" fill="#D98B55"/>
<path d="M67.3985 83.4662C66.017 82.8177 65.7351 81.2583 65.5604 79.889C65.5212 79.5816 65.1184 79.5797 65.0808 79.889C64.9127 81.2742 65.5125 83.9144 67.2546 83.9972C67.5291 84.0104 67.6567 83.5876 67.3985 83.4662Z" fill="#D98B55"/>
<path d="M67.5054 81.7846C67.1421 80.9801 66.8245 80.1411 66.7252 79.2591C66.6974 79.0125 66.3226 78.9991 66.3302 79.2591C66.3598 80.2503 66.5812 81.1733 67.1741 81.9782C67.321 82.178 67.6078 82.0114 67.5054 81.7846Z" fill="#D98B55"/>
<path d="M65.1911 84.6001C65.0291 84.506 64.8329 84.7427 64.986 84.8659C66.61 86.1736 67.015 88.0962 66.9753 90.0982C66.9529 91.225 66.7397 92.3422 66.425 93.4212C66.0967 94.5469 65.4693 95.511 65.0488 96.5896C64.9363 96.8783 65.3597 97.1009 65.558 96.8861C67.1885 95.1188 67.706 92.0968 67.6749 89.782C67.6493 87.8599 66.9431 85.6171 65.1911 84.6001Z" fill="#D98B55"/>
<path d="M65.4402 88.368C65.2925 88.1383 64.9677 88.3371 65.0797 88.5787C65.7495 90.0243 65.5355 91.1742 65.1425 92.6468C65.0742 92.9023 65.3972 92.999 65.5395 92.8142C66.4832 91.5875 66.2361 89.6056 65.4402 88.368Z" fill="#D98B55"/>
<path d="M67.7179 107.004C67.5387 105.982 67.1283 105.111 66.6256 104.213C66.0513 103.187 65.4266 102.133 65.6633 100.912C65.9775 99.2906 67.6053 98.1098 67.129 96.3323C67.0673 96.1014 66.7309 96.2004 66.7753 96.4298C67.081 98.0084 65.5032 99.3127 65.0787 100.751C64.6306 102.27 65.6447 103.774 66.3165 105.05C67.3809 107.071 67.1285 109.233 66.6242 111.378C66.403 112.319 66.101 113.24 65.7617 114.144C65.5467 114.718 65.2953 115.276 65.0334 115.829C64.8362 116.245 64.6143 116.986 64.1541 117.195C63.9062 117.308 64.0456 117.673 64.285 117.679C65.0103 117.696 65.2423 117.063 65.5371 116.496C66.0459 115.516 66.4489 114.476 66.8042 113.432C67.4756 111.459 68.0854 109.097 67.7179 107.004Z" fill="#D98B55"/>
<path d="M65.0561 105.933C64.8995 105.678 64.5402 105.9 64.6614 106.164C65.1034 107.125 65.2762 108.072 65.2196 109.125C65.187 109.734 65.0312 110.334 64.8632 110.917C64.8147 111.086 64.6103 111.835 64.5289 112.051C64.4637 112.076 64.4086 112.126 64.3982 112.197C64.3954 112.216 64.3926 112.235 64.3899 112.253C64.3693 112.392 64.4505 112.576 64.6222 112.559C65.484 112.469 65.6584 110.475 65.7517 109.842C65.9471 108.516 65.7624 107.087 65.0561 105.933Z" fill="#D98B55"/>
<path d="M66.6937 101.587C66.7152 101.002 66.9021 100.468 66.9905 99.8984C67.0145 99.744 66.8242 99.6487 66.7327 99.7897C66.2044 100.604 65.9412 102.046 66.2418 102.981C66.3238 103.236 66.6672 103.173 66.6906 102.92C66.7318 102.476 66.6773 102.032 66.6937 101.587Z" fill="#D98B55"/>
<path d="M67.2775 115.847C66.5992 116.022 66.1117 116.432 65.6845 116.977C65.3252 117.436 64.8748 118.155 64.9928 118.762C65.0199 118.901 65.2308 118.96 65.3229 118.849C65.6657 118.434 65.7963 117.868 66.1404 117.433C66.4995 116.979 66.9998 116.624 67.4602 116.28C67.6666 116.126 67.5539 115.776 67.2775 115.847Z" fill="#D98B55"/>
<path d="M70.5743 78.3869C70.5377 78.1318 70.1571 78.1681 70.0955 78.3869C69.8673 79.1977 69.8628 80.0835 69.7998 80.9211C69.7203 81.9789 69.655 83.0369 69.5981 84.0962C69.4838 86.2178 69.4661 88.327 69.508 90.4511C69.5154 90.829 70.0639 90.8218 70.0892 90.4511C70.2255 88.4499 70.3537 86.4538 70.4275 84.4492C70.4665 83.3906 70.5126 82.3324 70.5527 81.2739C70.5886 80.3218 70.7097 79.3317 70.5743 78.3869Z" fill="#FAB174"/>
<path d="M70.0156 92.3727C69.9661 92.0786 69.5393 92.1727 69.5223 92.4395C69.4718 93.2336 69.5611 93.9727 69.6698 94.7558C69.7067 95.0204 70.11 94.9412 70.1187 94.6951C70.1467 93.9043 70.1474 93.1561 70.0156 92.3727Z" fill="#FAB174"/>
<path d="M65.2844 93.8814C65.2576 93.6718 64.9424 93.657 64.9458 93.8814C64.9915 96.9583 64.9743 100.013 64.768 103.086C64.7541 103.294 65.1034 103.344 65.1338 103.136C65.5779 100.085 65.6745 96.9456 65.2844 93.8814Z" fill="#FAB174"/>
<path d="M65.0708 104.987C65.0661 104.78 64.7539 104.78 64.7492 104.987C64.7333 105.686 64.6568 106.409 64.7739 107.101C64.7969 107.236 65.0231 107.236 65.046 107.101C65.1632 106.409 65.0866 105.686 65.0708 104.987Z" fill="#FAB174"/>
<path d="M76.3018 2.13218C76.2675 1.98431 76.074 2.03631 76.0581 2.16522C75.8391 3.92972 76.0557 5.80706 76.1059 7.58095C76.1124 7.81115 76.4486 7.80881 76.4614 7.58095C76.5609 5.81212 76.705 3.87249 76.3018 2.13218Z" fill="#FFDD2E"/>
<path d="M76.4945 8.77132C76.4262 8.62689 76.2238 8.71066 76.2159 8.84679C76.1886 9.31694 76.2385 9.81869 76.2686 10.2892C76.282 10.4965 76.6104 10.5685 76.651 10.3408C76.7413 9.83458 76.7175 9.24346 76.4945 8.77132Z" fill="#FFDD2E"/>
<path d="M75.3534 40.3951C74.4808 41.1487 73.6378 42.3615 74.0609 43.5674C74.1241 43.7477 74.4214 43.7308 74.4101 43.5201C74.3452 42.3268 75.0483 41.571 75.6593 40.6309C75.7862 40.4356 75.513 40.2574 75.3534 40.3951Z" fill="#FFDD2E"/>
<path d="M77.304 39.3386C77.0529 39.4601 76.7728 39.483 76.517 39.5834C76.3953 39.6312 76.3601 39.8351 76.517 39.8663C76.8647 39.9356 77.1977 39.7488 77.4544 39.5336C77.5689 39.4375 77.4232 39.2808 77.304 39.3386Z" fill="#FFDD2E"/>
<path d="M65.3375 73.1685C64.9049 71.7386 64.823 70.364 64.9042 68.8834C64.9131 68.7216 64.6688 68.695 64.6271 68.8458C64.2181 70.3263 64.424 71.9079 65.0228 73.301C65.1008 73.4823 65.393 73.3521 65.3375 73.1685Z" fill="#FFDD2E"/>
<path d="M66.2985 75.4862C66.0623 75.0632 65.9327 74.6158 65.7697 74.1647C65.7261 74.0445 65.5088 74.0068 65.4867 74.1647C65.4084 74.7293 65.6649 75.2822 66.0593 75.6707C66.1837 75.7935 66.383 75.6375 66.2985 75.4862Z" fill="#FFDD2E"/>
<path d="M7.57781 82.1364C4.89269 83.9057 1.18097 87.7985 3.21882 91.2748C3.37554 91.5422 3.80416 91.3647 3.71894 91.0639C3.23977 89.3722 3.44631 87.7958 4.31728 86.2688C5.19168 84.7354 6.62216 83.7014 7.82733 82.4597C7.98693 82.2956 7.77804 82.0044 7.57781 82.1364Z" fill="#E63627"/>
<path d="M6.89165 93.232C6.15465 92.8366 5.41097 92.4477 4.71604 91.9804C4.50643 91.8394 4.25456 92.1649 4.44594 92.3305C5.12354 92.9165 5.85314 93.3881 6.70894 93.6651C6.9655 93.7482 7.12763 93.3587 6.89165 93.232Z" fill="#E63627"/>
<path d="M45.251 88.9788C43.5743 89.8089 41.9396 90.7192 40.252 91.5288C38.4714 92.3832 36.6195 93.0619 34.822 93.8733C34.7039 93.9265 34.7904 94.1016 34.9068 94.0744C36.738 93.6454 38.5187 92.9064 40.2406 92.1604C42.0625 91.371 43.8447 90.502 45.4874 89.3832C45.7371 89.2129 45.5224 88.8443 45.251 88.9788Z" fill="#E63627"/>
<path d="M48.88 86.8708C48.3138 87.1747 47.7685 87.5647 47.2926 87.9987C47.0615 88.2094 47.3556 88.5501 47.614 88.4153C48.1872 88.1157 48.733 87.7346 49.2149 87.3051C49.4576 87.0889 49.1483 86.7268 48.88 86.8708Z" fill="#E63627"/>
<path d="M61.1553 26.0884C59.0134 21.5142 55.0016 17.5472 50.8232 14.796C50.6376 14.6738 50.407 14.9667 50.5838 15.1062C52.5458 16.6542 54.3856 18.3429 56.0418 20.2161C57.747 22.1449 59.1356 24.3023 60.5853 26.4216C60.8274 26.7754 61.3354 26.4732 61.1553 26.0884Z" fill="#E63627"/>
<path d="M62.7834 31.0577C62.5687 29.9803 62.3019 28.8566 61.9765 27.8074C61.8736 27.4752 61.3552 27.5289 61.3614 27.8907C61.3811 29.0372 61.6952 30.2777 62.18 31.3121C62.3477 31.6697 62.8524 31.4038 62.7834 31.0577Z" fill="#E63627"/>
<path d="M85.5557 4.28126C84.1992 3.81166 82.7142 3.6284 81.2859 3.83892C81.0321 3.87647 81.1241 4.23251 81.3422 4.25454C82.7113 4.3923 84.073 4.50929 85.4356 4.71638C85.7195 4.75972 85.8357 4.37822 85.5557 4.28126Z" fill="#E63627"/>
<path d="M88.5162 4.81153C88.1363 4.72234 87.7779 4.66781 87.3886 4.63983C87.0857 4.61816 87.1007 5.06665 87.3886 5.10258C87.7562 5.14843 88.1002 5.16234 88.4703 5.14952C88.6597 5.14302 88.7108 4.85721 88.5162 4.81153Z" fill="#E63627"/>
<path d="M72.6455 17.8235C71.2521 17.4471 69.7698 17.3727 68.3404 17.203C68.0973 17.1741 68.0426 17.5872 68.2826 17.6296C69.7008 17.8802 71.1405 18.2353 72.584 18.2779C72.8476 18.2857 72.8958 17.8912 72.6455 17.8235Z" fill="#E63627"/>
<path d="M94.0381 23.0686C92.7398 22.7389 91.4254 22.5279 90.1361 22.1503C89.9676 22.101 89.8481 22.3657 90.0144 22.439C91.2562 22.9863 92.6132 23.4494 93.9796 23.5007C94.2293 23.5102 94.2777 23.1294 94.0381 23.0686Z" fill="#E63627"/>
<path d="M97.1049 23.4499C96.7385 23.3133 96.3487 23.2856 95.9626 23.2363C95.6865 23.2013 95.63 23.6604 95.8974 23.7184C96.2785 23.8011 96.6533 23.9002 97.0451 23.893C97.3109 23.8885 97.3372 23.5366 97.1049 23.4499Z" fill="#E63627"/>
<path d="M114.517 37.4491C113.99 33.47 111.638 29.9043 108.552 27.409C108.33 27.2293 108.01 27.535 108.233 27.7282C111.222 30.3232 112.989 33.7388 114.024 37.5159C114.096 37.7811 114.555 37.736 114.517 37.4491Z" fill="#E63627"/>
<path d="M114.807 39.4718C114.754 39.1813 114.337 39.2736 114.319 39.5377C114.247 40.6322 114.345 41.7742 114.492 42.8593C114.535 43.1711 115.018 43.0811 115.024 42.7872C115.047 41.6953 115.004 40.5484 114.807 39.4718Z" fill="#E63627"/>
<path d="M30.2173 15.5939C26.9645 17.0338 24.33 20.223 22.722 23.3091C22.6566 23.4348 22.8375 23.5415 22.9119 23.4201C23.8206 21.938 24.9048 20.5774 26.1349 19.3493C27.4466 18.0398 28.9677 17.084 30.4592 16.0077C30.7123 15.8255 30.4998 15.4688 30.2173 15.5939Z" fill="#CA2F21"/>
<path d="M33.4035 14.6846C32.7837 14.6778 32.2173 14.8771 31.6813 15.1774C31.4363 15.3146 31.6511 15.6621 31.8978 15.5477C32.393 15.3178 32.9258 15.1907 33.4553 15.0669C33.6731 15.0161 33.6198 14.687 33.4035 14.6846Z" fill="#CA2F21"/>
<path d="M33.4949 28.3195C29.9764 28.1121 26.4505 28.2283 22.9327 28.4139C22.6907 28.4268 22.6875 28.7918 22.9327 28.792C26.4537 28.7944 29.9757 28.8646 33.4949 28.7485C33.7726 28.7391 33.7697 28.3358 33.4949 28.3195Z" fill="#FFF395"/>
<path d="M37.0808 28.556C36.488 28.3863 35.9267 28.3132 35.3164 28.4396C34.9922 28.5067 35.0913 28.9687 35.3906 28.9882C35.9326 29.0235 36.475 29.0002 37.0163 29.0327C37.2958 29.0493 37.3382 28.6297 37.0808 28.556Z" fill="#FFF395"/>
<path d="M24.4683 38.124C21.3016 38.1627 18.155 38.1553 14.9888 38.1006C14.7988 38.0973 14.7481 38.4106 14.9431 38.4385C18.0556 38.8867 21.3419 38.9576 24.4683 38.6317C24.7868 38.5987 24.8021 38.1201 24.4683 38.124Z" fill="#FFF395"/>
<path d="M28.4154 38.3031C27.8108 38.1888 27.2429 38.2204 26.6334 38.2885C26.3032 38.3253 26.3032 38.7649 26.6334 38.802C27.2429 38.87 27.8108 38.9016 28.4154 38.7873C28.6559 38.7417 28.6559 38.3484 28.4154 38.3031Z" fill="#FFF395"/>
<path d="M47.8792 68.6304C47.4116 68.9765 46.9685 69.3391 46.5394 69.7325C46.2259 70.0197 45.5334 70.4485 45.5583 70.9165C45.5601 70.9499 45.5808 70.9857 45.6162 70.9927C46.0216 71.0729 46.3852 70.6334 46.6815 70.3964C47.2135 69.9706 47.7211 69.5314 48.2004 69.0469C48.4064 68.839 48.1273 68.4468 47.8792 68.6304Z" fill="#FDC870"/>
<path d="M56.1614 63.7977C52.827 65.6032 49.6113 68.1859 47.2831 71.1953C47.1011 71.4305 47.3891 71.7462 47.6182 71.5304C48.9831 70.2451 50.3049 68.9383 51.7569 67.7474C53.2547 66.5189 54.8652 65.41 56.4745 64.3334C56.8054 64.1122 56.516 63.6057 56.1614 63.7977Z" fill="#FDC870"/>
<path d="M60.1527 64.1911C58.3873 64.9824 56.8009 66.0733 55.2489 67.2201C53.8146 68.2799 52.1646 69.4165 51.065 70.8325C50.9348 71.0003 51.0982 71.2762 51.3077 71.1471C52.8306 70.2095 54.1658 68.9079 55.6275 67.8679C57.1964 66.7516 58.8561 65.7741 60.4317 64.6684C60.7267 64.4615 60.4768 64.0457 60.1527 64.1911Z" fill="#FDC870"/>
<path d="M60.291 66.6131C58.2454 67.777 56.4294 69.4572 54.633 70.9649C54.4369 71.1294 54.6965 71.4654 54.9065 71.3193C56.8315 69.9791 58.927 68.6647 60.5851 66.9941C60.7805 66.7971 60.531 66.4765 60.291 66.6131Z" fill="#FDC870"/>
<path d="M60.0777 69.0942C59.5944 69.3894 59.1732 69.7426 58.7456 70.1129C58.5068 70.3198 58.8238 70.7329 59.0842 70.5514C59.548 70.2281 59.9943 69.9065 60.3991 69.5106C60.6141 69.3004 60.3363 68.9362 60.0777 69.0942Z" fill="#FDC870"/>
<path d="M58.8976 48.1416C57.1502 49.2122 55.5121 50.4147 53.9 51.6774C52.1588 53.0415 50.3425 54.4302 48.8111 56.0317C48.6589 56.1908 48.8622 56.482 49.0537 56.3462C50.7774 55.1257 52.382 53.7178 54.0627 52.437C55.7741 51.1329 57.5162 49.8737 59.2121 48.5491C59.4475 48.3653 59.1444 47.9903 58.8976 48.1416Z" fill="#FDC870"/>
<path d="M59.8735 50.2865C57.6258 51.6877 55.4484 53.3313 53.3214 54.9114C53.1643 55.028 53.2986 55.2783 53.4781 55.1793C55.7913 53.9034 58.1738 52.4076 60.1846 50.6896C60.4084 50.4984 60.1181 50.1339 59.8735 50.2865Z" fill="#FDC870"/>
<path d="M61.1874 51.6216C60.0834 52.131 59.0338 52.9288 58.0303 53.6158C57.7774 53.7891 57.9931 54.141 58.2667 54.0202C59.383 53.5273 60.6214 52.8804 61.4779 51.9983C61.6774 51.7928 61.427 51.511 61.1874 51.6216Z" fill="#FDC870"/>
<path d="M61.1657 53.6678C60.8877 53.9077 60.5733 54.1006 60.2657 54.2995C59.986 54.4803 60.235 54.9143 60.5277 54.7477C60.8886 54.5422 61.1744 54.258 61.4331 53.935C61.5841 53.7465 61.3531 53.5062 61.1657 53.6678Z" fill="#FDC870"/>
<path d="M50.4701 35.239C49.6179 35.6317 48.7307 36.0304 48.0034 36.6354C47.8619 36.7533 48.0126 36.9985 48.1818 36.942C49.0781 36.6421 49.8857 36.0934 50.6665 35.5752C50.8783 35.4347 50.6963 35.1348 50.4701 35.239Z" fill="#FDC870"/>
<path d="M58.1642 32.0474C56.6965 32.7019 55.3476 33.5548 54.011 34.4415C52.775 35.2614 51.4544 36.0943 50.376 37.118C50.2137 37.2722 50.4203 37.5204 50.6086 37.4193C51.9047 36.7226 53.1075 35.8126 54.3557 35.031C55.7118 34.1819 57.0977 33.3842 58.4063 32.4616C58.6616 32.2814 58.4455 31.922 58.1642 32.0474Z" fill="#FDC870"/>
<path d="M59.3245 34.0662C57.6517 34.5963 56.0787 35.8114 54.6098 36.7504C54.3745 36.9008 54.5831 37.2622 54.829 37.1256C56.3645 36.2716 58.1753 35.5367 59.5139 34.3917C59.6632 34.2637 59.505 34.0089 59.3245 34.0662Z" fill="#FDC870"/>
<path d="M59.7135 36.1824C59.0048 36.3194 58.4084 36.8258 57.8872 37.3C57.6928 37.4769 57.9565 37.8283 58.171 37.6677C58.715 37.2602 59.3468 36.9968 59.883 36.5845C60.0787 36.4341 59.9698 36.1327 59.7135 36.1824Z" fill="#FDC870"/>
<path d="M59.8421 37.6445C59.709 37.7147 59.5801 37.7864 59.4535 37.868C59.3284 37.9487 59.2775 38.1094 59.3553 38.2424C59.4487 38.4019 59.6538 38.4134 59.785 38.2979C59.8977 38.1986 60.0015 38.0946 60.1051 37.9857C60.2783 37.8041 60.0602 37.5295 59.8421 37.6445Z" fill="#FDC870"/>
<path d="M45.7641 52.5479C44.8227 53.2222 43.9716 54.0695 43.1999 54.9315C43.0584 55.0894 43.2532 55.3852 43.4392 55.2416C44.354 54.5357 45.2692 53.7554 46.0102 52.8669C46.1478 52.702 45.9647 52.4041 45.7641 52.5479Z" fill="#FDC870"/>
<path d="M57.7571 44.13C55.5131 45.6031 53.4227 47.2379 51.404 49.0062C49.3466 50.8084 47.267 52.6997 45.5118 54.8027C45.3568 54.9881 45.5961 55.2359 45.779 55.0699C47.7422 53.2908 49.6064 51.4162 51.6188 49.6878C53.7047 47.8962 55.8742 46.19 58.0375 44.4934C58.2449 44.3305 57.9745 43.9871 57.7571 44.13Z" fill="#FDC870"/>
<path d="M57.3932 43.2283C55.5873 44.3539 53.9293 45.6937 52.2712 47.024C52.0688 47.1863 52.3358 47.5301 52.5481 47.3829C54.296 46.1718 56.0493 44.9628 57.6427 43.5517C57.8193 43.3955 57.5903 43.1055 57.3932 43.2283Z" fill="#FDC870"/>
<path d="M59.1951 42.3093C59.0769 42.4015 58.9586 42.494 58.8402 42.5862C58.7208 42.6794 58.6273 42.7922 58.5273 42.9053C58.3413 43.1154 58.6242 43.3984 58.8344 43.2124C58.9474 43.1124 59.0603 43.0188 59.1534 42.8995C59.2457 42.7812 59.3381 42.6628 59.4304 42.5445C59.5635 42.3745 59.3654 42.1764 59.1951 42.3093Z" fill="#FDC870"/>
<path d="M17.7752 66.1914C16.8589 62.8568 17.0521 59.4269 16.3476 56.0684C16.2645 55.6726 15.6637 55.8411 15.7436 56.2348C16.4142 59.5389 15.7879 63.2896 17.3679 66.3631C17.4852 66.5915 17.8411 66.4315 17.7752 66.1914Z" fill="#FFF395"/>
<path d="M17.9786 67.92C17.9058 67.6894 17.5738 67.7365 17.563 67.9763C17.5388 68.5084 17.6466 69.0509 17.7924 69.5586C17.8518 69.7653 18.1595 69.722 18.1637 69.5084C18.1743 68.9801 18.1387 68.4278 17.9786 67.92Z" fill="#FFF395"/>
<path d="M113.102 69.5104C112.221 69.9204 111.395 70.5772 110.806 71.3532C110.654 71.5542 110.956 71.8582 111.157 71.7044C111.914 71.1249 112.652 70.4812 113.351 69.8337C113.534 69.6649 113.302 69.4169 113.102 69.5104Z" fill="#B6291C"/>
<path d="M116.3 68.2655C114.232 69.5944 112.373 71.4392 110.63 73.1638C110.416 73.3758 110.729 73.6679 110.953 73.487C112.855 71.9518 114.916 70.4249 116.594 68.6465C116.779 68.4509 116.539 68.1122 116.3 68.2655Z" fill="#B6291C"/>
<path d="M116.044 70.9947C114.042 72.4692 112.363 74.4627 110.684 76.2839C110.456 76.5318 110.817 76.8974 111.055 76.6549C112.789 74.8906 114.751 73.2714 116.335 71.3713C116.496 71.1774 116.278 70.8219 116.044 70.9947Z" fill="#B6291C"/>
<path d="M116.338 73.7343C115.357 74.2426 114.582 75.1327 113.913 75.9919C113.692 76.2761 114.082 76.6821 114.316 76.3949C115.009 75.5454 115.851 74.8631 116.591 74.0622C116.754 73.8854 116.55 73.6247 116.338 73.7343Z" fill="#B6291C"/>
<path d="M116.123 75.4945C115.953 75.6258 115.783 75.7568 115.613 75.8881C115.494 75.9804 115.517 76.1827 115.613 76.279C115.71 76.3754 115.912 76.3985 116.004 76.279C116.136 76.1093 116.267 75.9395 116.398 75.7698C116.552 75.57 116.322 75.34 116.123 75.4945Z" fill="#B6291C"/>
<path d="M93.8046 72.2562C93.0284 72.6906 92.2376 73.114 91.5435 73.6756C91.4024 73.7899 91.582 73.977 91.7248 73.9105C92.5219 73.5395 93.2385 73.0181 93.9584 72.5192C94.118 72.4087 93.9782 72.159 93.8046 72.2562Z" fill="#B6291C"/>
<path d="M100.641 69.3239C98.1248 70.6204 95.7988 72.2748 93.5226 73.9483C93.3152 74.1009 93.5114 74.4511 93.7277 74.2991C96.0449 72.6689 98.4706 71.2094 100.812 69.6162C100.991 69.4938 100.836 69.2233 100.641 69.3239Z" fill="#B6291C"/>
<path d="M103.72 69.6505C102.228 70.0235 100.836 70.982 99.5832 71.8398C98.2895 72.7256 97.0889 73.7448 95.9722 74.8436C95.7017 75.1097 96.1129 75.5183 96.3871 75.2585C97.4888 74.2149 98.6654 73.2708 99.9239 72.4226C101.201 71.5618 102.647 70.9669 103.907 70.0939C104.129 69.9399 103.997 69.5812 103.72 69.6505Z" fill="#B6291C"/>
<path d="M104.606 71.6589C102.656 72.553 100.887 73.7867 99.1845 75.0821C98.9496 75.2609 99.1722 75.6646 99.4208 75.4866C101.163 74.2386 103.013 73.1743 104.825 72.0341C105.066 71.8824 104.857 71.5437 104.606 71.6589Z" fill="#B6291C"/>
<path d="M104.541 74.6457C104.529 74.6457 104.529 74.6638 104.541 74.6638C104.553 74.6638 104.553 74.6457 104.541 74.6457Z" fill="#B6291C"/>
<path d="M77.8657 68.2054C76.747 68.9901 75.7097 69.8957 74.6824 70.7954C74.4959 70.9586 74.7485 71.2913 74.9491 71.1409C76.0412 70.322 77.1442 69.4963 78.1426 68.5643C78.3302 68.3892 78.0802 68.055 77.8657 68.2054Z" fill="#B6291C"/>
<path d="M82.8533 67.4216C80.1839 68.6629 77.7674 70.3806 75.4856 72.2282C75.2897 72.3869 75.5553 72.7321 75.7557 72.5783C78.0767 70.797 80.5708 69.3051 83.0726 67.797C83.3162 67.6498 83.1035 67.3053 82.8533 67.4216Z" fill="#B6291C"/>
<path d="M84.5026 69.0543C83.8476 69.0525 83.3144 69.43 82.772 69.7595C81.93 70.271 81.1238 70.8479 80.3278 71.4276C79.9439 71.7071 80.3139 72.3535 80.7037 72.0707C81.3428 71.6073 81.9917 71.1591 82.6514 70.7253C83.2408 70.3378 83.888 69.7507 84.5692 69.5476C84.84 69.4668 84.7895 69.0552 84.5026 69.0543Z" fill="#B6291C"/>
<path d="M84.4092 71.9375C84.3975 71.9375 84.3975 71.9556 84.4092 71.9556C84.4209 71.9556 84.4209 71.9375 84.4092 71.9375Z" fill="#B6291C"/>
<path d="M61.4602 75.1937C59.8035 76.4174 58.1953 77.7537 56.8266 79.2999C56.6493 79.5003 56.9162 79.7625 57.1178 79.5911C58.6765 78.2673 60.1646 76.8555 61.6994 75.5039C61.8664 75.3569 61.6411 75.0601 61.4602 75.1937Z" fill="#B6291C"/>
<path d="M62.9628 76.1385C61.1909 77.6726 59.6551 79.4723 58.1764 81.2852C58.0363 81.4571 58.2736 81.7043 58.4238 81.5326C59.9695 79.7672 61.6511 78.1408 63.258 76.4337C63.4443 76.2358 63.1648 75.9636 62.9628 76.1385Z" fill="#B6291C"/>
<path d="M64.2738 77.0972C64.1698 76.9932 64.0288 77.0133 63.9226 77.0972L63.1665 77.6952C62.8729 77.9274 63.3053 78.3851 63.5853 78.1141C63.8148 77.8922 64.0441 77.6703 64.2736 77.4482C64.3709 77.3543 64.3682 77.1917 64.2738 77.0972Z" fill="#B6291C"/>
<path d="M80.884 9.30285C80.4669 9.33607 80.0676 9.45614 79.6644 9.5623C79.4412 9.62116 79.5362 9.9512 79.7588 9.90498C80.1522 9.82338 80.5512 9.75784 80.9252 9.60744C81.0745 9.5475 81.0729 9.28769 80.884 9.30285Z" fill="#B6291C"/>
<path d="M82.6477 10.0321C81.5647 10.3338 80.5692 10.8906 79.6406 11.5147C79.4762 11.6252 79.6249 11.8881 79.7973 11.7827C80.7472 11.2013 81.7556 10.774 82.7717 10.326C82.9416 10.2511 82.819 9.98441 82.6477 10.0321Z" fill="#B6291C"/>
<path d="M85.6916 10.3168C84.3516 10.6525 83.0769 11.1938 81.8062 11.7278C81.4663 11.8708 81.6154 12.4332 81.9608 12.2882C83.2523 11.7455 84.5749 11.2718 85.8373 10.6624C86.0361 10.5663 85.8933 10.2665 85.6916 10.3168Z" fill="#B6291C"/>
<path d="M86.2546 11.4584C85.8863 11.5826 85.5179 11.7067 85.1496 11.8309C84.7741 11.9575 85.0037 12.5098 85.3605 12.331L86.4024 11.809C86.5967 11.7117 86.4602 11.3891 86.2546 11.4584Z" fill="#B6291C"/>
</svg>
