<svg width="14" height="14" viewBox="0 0 14 14" fill="none" xmlns="http://www.w3.org/2000/svg">
<g clip-path="url(#clip0_3514_3172)">
<path d="M3.49206 10.63C2.92113 10.1159 2.50927 9.49949 2.23943 8.83767C1.52364 7.08229 1.85881 4.99457 3.2563 3.55447L4.54586 4.84403C4.61687 4.91504 4.74469 4.86391 4.76173 4.75881L5.46616 0.148796C5.47752 0.0721042 5.41219 0.00677429 5.3355 0.018136L0.722641 0.722563C0.617545 0.739605 0.566417 0.867425 0.637428 0.938436L1.92982 2.23083C-0.203339 4.41228 -0.566914 7.68446 0.833418 10.2408C1.2538 11.0106 1.83609 11.715 2.57744 12.3058C3.83859 13.3085 5.38947 13.7885 6.92898 13.7573L7.21871 11.8627C5.89222 11.9763 4.52882 11.5673 3.49206 10.63Z" fill="#323338"/>
<path d="M12.0701 11.769C14.2033 9.5876 14.5669 6.31542 13.1665 3.75904C12.7462 2.98928 12.1639 2.28485 11.4225 1.69404C10.1614 0.69137 8.61049 0.211337 7.07097 0.242582L6.78125 2.13715C8.10489 2.02353 9.47114 2.43255 10.5079 3.3699C11.0788 3.88401 11.4907 4.50039 11.7605 5.16221C12.4763 6.91759 12.1411 9.00531 10.7437 10.4454L9.4541 9.15585C9.38308 9.08484 9.25526 9.13597 9.23822 9.24107L8.5338 13.8511C8.52243 13.9278 8.58776 13.9931 8.66446 13.9817L13.2773 13.2773C13.3824 13.2603 13.4307 13.1325 13.3625 13.0614L12.0701 11.769Z" fill="#323338"/>
</g>
<defs>
<clipPath id="clip0_3514_3172">
<rect width="14" height="14" fill="white"/>
</clipPath>
</defs>
</svg>
