<svg width="20" height="20" viewBox="0 0 20 20" fill="none" xmlns="http://www.w3.org/2000/svg">
<g clip-path="url(#clip0_3528_5377)">
<path d="M9.9999 6.78125C8.22409 6.78125 6.78125 8.22409 6.78125 9.9999C6.78125 11.7757 8.22409 13.2185 9.9999 13.2185C11.7757 13.2185 13.2185 11.7757 13.2185 9.9999C13.2185 8.22409 11.7757 6.78125 9.9999 6.78125ZM9.75572 9.0454C9.35617 9.0454 9.0232 9.37836 9.0232 9.77792H7.95772C7.97992 8.77903 8.77903 7.97992 9.75572 7.97992V9.0454Z" fill="white"/>
<path d="M19.7663 9.33411C18.6786 7.98006 14.7941 3.56274 9.99939 3.56274C5.20472 3.56274 1.32014 7.98006 0.232464 9.33411C-0.0783018 9.71147 -0.0783018 10.2664 0.232464 10.666C1.32014 12.02 5.20472 16.4373 9.99939 16.4373C14.7941 16.4373 18.6786 12.02 19.7663 10.666C20.0771 10.2886 20.0771 9.73366 19.7663 9.33411ZM9.99939 14.6615C7.42447 14.6615 5.3379 12.575 5.3379 10C5.3379 7.42512 7.42447 5.33855 9.99939 5.33855C12.5743 5.33855 14.6609 7.42512 14.6609 10C14.6609 12.575 12.5743 14.6615 9.99939 14.6615Z" fill="white"/>
</g>
<defs>
<clipPath id="clip0_3528_5377">
<rect width="20" height="20" fill="white"/>
</clipPath>
</defs>
</svg>
